<svg xmlns="http://www.w3.org/2000/svg" width="24" height="24" viewBox="0 0 24 24"><defs><style>.a{fill:none;}.b{fill:#0a4291;}</style></defs><g transform="translate(-1713 -218)"><rect class="a" width="24" height="24" transform="translate(1713 218)"/><path class="b" d="M19.889,5.46l.12-.117L20,5.016,13.931,0V3.081h0c-.134,0-.265,0-.4.007A7.307,7.307,0,0,0,7.336,6.807H3.6L.208,11.892.062,11.9v.265l-.037.086.037.054v6.552A1.146,1.146,0,0,0,1.207,20h17.33a1.146,1.146,0,0,0,1.145-1.145V12.3l.038-.059-.043-.1-.013-.257h-.142L16.937,8Zm-1.174,6.421h-5.46v2.368H6.489V11.881H1.028l2.936-4.4H7.01c-.009.022-.017.045-.026.067-.027.067-.053.133-.077.2-.055.15-.107.3-.15.451a6.119,6.119,0,0,0-.24,2.376l.133.9.487-.768a7.075,7.075,0,0,1,6.793-3.169V10.59h0L15.579,9.17l.842-.725Z" transform="translate(1714.975 220)"/></g></svg>