<svg xmlns="http://www.w3.org/2000/svg" width="24" height="24" viewBox="0 0 24 24"><defs><style>.a{fill:none;}.b{fill:#9d9d9d;}</style></defs><g transform="translate(-1713 -218)"><rect class="a" width="24" height="24" transform="translate(1713 218)"/><g transform="translate(1715 221)"><path class="b" d="M100.614,3.181H88.387a.392.392,0,0,1-.387-.4V1.75A1.727,1.727,0,0,1,89.7,0h9.6A1.727,1.727,0,0,1,101,1.75V2.784A.392.392,0,0,1,100.614,3.181Z" transform="translate(-84.5)"/><path class="b" d="M17.891,112H2.109A2.131,2.131,0,0,0,0,114.147v7.476a2.131,2.131,0,0,0,2.109,2.147H3.438V120.59a2.841,2.841,0,0,1,2.813-2.863h7.5a2.841,2.841,0,0,1,2.813,2.863v3.181h1.328A2.131,2.131,0,0,0,20,121.624v-7.476A2.131,2.131,0,0,0,17.891,112Z" transform="translate(0 -107.873)"/><path class="b" d="M144.59,304h-7.635a.954.954,0,0,0-.954.954v4.454a.954.954,0,0,0,.954.954h7.635a.954.954,0,0,0,.954-.954v-4.454A.954.954,0,0,0,144.59,304Z" transform="translate(-130.772 -292.238)"/></g></g></svg>