<svg xmlns="http://www.w3.org/2000/svg" width="24" height="24" viewBox="0 0 24 24"><defs><style>.a{fill:none;}.b{fill:#9d9d9d;}</style></defs><g transform="translate(-1713 -218)"><rect class="a" width="24" height="24" transform="translate(1713 218)"/><g transform="translate(1653 220)"><g transform="translate(74.091)"><path class="b" d="M320,0V5.045h5.046Z" transform="translate(-320)"/></g><g transform="translate(64)"><path class="b" d="M74.091,6.307A1.263,1.263,0,0,1,72.83,5.045V0H65.261A1.263,1.263,0,0,0,64,1.261V18.921a1.263,1.263,0,0,0,1.261,1.261H77.875a1.262,1.262,0,0,0,1.261-1.261V6.307ZM69.045,17.659H66.523V13.875h2.523Zm3.784,0H70.307V11.352H72.83Zm3.784,0H74.091V8.83h2.523Z" transform="translate(-64)"/></g></g></g></svg>