<svg xmlns="http://www.w3.org/2000/svg" width="50" height="50" viewBox="0 0 50 50"><defs><style>.a{fill:#0a4291;}.b{fill:#fff;}</style></defs><g transform="translate(-1487 -391)"><rect class="a" width="50" height="50" rx="10" transform="translate(1487 391)"/><g transform="translate(1502 370.638)"><g transform="translate(0 36.54)"><path class="b" d="M19.219,39.988a2.569,2.569,0,0,0-1.885-.781H15l-.531-1.417a1.935,1.935,0,0,0-.724-.88,1.855,1.855,0,0,0-1.078-.37H7.333a1.855,1.855,0,0,0-1.078.37,1.935,1.935,0,0,0-.724.88L5,39.207H2.667a2.569,2.569,0,0,0-1.885.781A2.569,2.569,0,0,0,0,41.873v9.333a2.569,2.569,0,0,0,.781,1.885,2.569,2.569,0,0,0,1.885.781H17.333A2.668,2.668,0,0,0,20,51.207V41.873A2.569,2.569,0,0,0,19.219,39.988ZM13.3,49.837a4.494,4.494,0,0,1-3.3,1.37,4.494,4.494,0,0,1-3.3-1.37,4.652,4.652,0,0,1,0-6.594,4.494,4.494,0,0,1,3.3-1.37,4.494,4.494,0,0,1,3.3,1.37,4.652,4.652,0,0,1,0,6.594Z" transform="translate(0 -36.54)"/><path class="b" d="M194.955,228.4a3.1,3.1,0,1,0,2.19.909A2.985,2.985,0,0,0,194.955,228.4Z" transform="translate(-184.955 -221.525)"/></g></g></g></svg>