<svg xmlns="http://www.w3.org/2000/svg" width="70" height="70" viewBox="0 0 70 70"><defs><style>.a{fill:none;}.b{fill:#cb2727;}</style></defs><g transform="translate(-1712.508 -217.508)"><rect class="a" width="70" height="70" transform="translate(1712.508 217.508)"/><path class="b" d="M57.232,15.725l.345-.338-.021-.941L40.073,0V8.873h0c-.387,0-.762.007-1.151.02A21.043,21.043,0,0,0,21.081,19.6H10.325L.551,34.248.13,34.27v.762l-.105.246.105.155V54.3a3.3,3.3,0,0,0,3.3,3.3H53.337a3.3,3.3,0,0,0,3.3-3.3V35.416l.108-.17-.123-.287-.037-.741h-.41L48.731,23.043ZM53.85,34.218H38.125v6.819H18.64V34.218H2.914l8.454-12.665h8.775c-.026.064-.048.129-.074.193-.077.192-.152.384-.222.579-.159.433-.307.865-.431,1.3a17.622,17.622,0,0,0-.691,6.842l.383,2.59,1.4-2.21c6.215-9.782,16.615-9.44,19.562-9.127V30.5h0l4.748-4.088,2.425-2.088Z" transform="translate(1718.735 223.76)"/></g></svg>