<svg xmlns="http://www.w3.org/2000/svg" width="32" height="32" viewBox="0 0 32 32"><defs><style>.a,.b{fill:#fff;}.a{opacity:0;}</style></defs><g transform="translate(-1699 -55)"><rect class="a" width="32" height="32" rx="5" transform="translate(1699 55)"/><g transform="translate(33.248 -8.191)"><path class="b" d="M17.64,14.192,11.586,8.142a1.143,1.143,0,1,1,1.619-1.615l6.859,6.854a1.141,1.141,0,0,1,.033,1.577l-6.888,6.9a1.143,1.143,0,0,1-1.619-1.615Z" transform="translate(1671.06 64.997)"/><path class="b" d="M17.64,14.192,11.586,8.142a1.143,1.143,0,1,1,1.619-1.615l6.859,6.854a1.141,1.141,0,0,1,.033,1.577l-6.888,6.9a1.143,1.143,0,0,1-1.619-1.615Z" transform="translate(1661.5 64.997)"/></g></g></svg>