<svg xmlns="http://www.w3.org/2000/svg" width="24" height="24" viewBox="0 0 24 24"><defs><style>.a{fill:#0a4291;}</style></defs><g transform="translate(0)"><path class="a" d="M64.734,238.583h2.447a.734.734,0,0,0,.734-.734V235.4a.734.734,0,0,0-.734-.734H64.734A.734.734,0,0,0,64,235.4v2.447A.734.734,0,0,0,64.734,238.583Zm0,0" transform="translate(-61.064 -223.621)"/><path class="a" d="M64.734,366.583h2.447a.734.734,0,0,0,.734-.734V363.4a.734.734,0,0,0-.734-.734H64.734A.734.734,0,0,0,64,363.4v2.447A.734.734,0,0,0,64.734,366.583Zm0,0" transform="translate(-61.064 -345.519)"/><path class="a" d="M214.066,238.583h2.447a.734.734,0,0,0,.734-.734V235.4a.734.734,0,0,0-.734-.734h-2.447a.734.734,0,0,0-.734.734v2.447A.734.734,0,0,0,214.066,238.583Zm0,0" transform="translate(-203.289 -223.621)"/><path class="a" d="M214.066,366.583h2.447a.734.734,0,0,0,.734-.734V363.4a.734.734,0,0,0-.734-.734h-2.447a.734.734,0,0,0-.734.734v2.447A.734.734,0,0,0,214.066,366.583Zm0,0" transform="translate(-203.289 -345.519)"/><path class="a" d="M363.4,238.583h2.447a.734.734,0,0,0,.734-.734V235.4a.734.734,0,0,0-.734-.734H363.4a.734.734,0,0,0-.734.734v2.447A.734.734,0,0,0,363.4,238.583Zm0,0" transform="translate(-345.519 -223.621)"/><path class="a" d="M21,3H20V1a1,1,0,0,0-1-1H18a1,1,0,0,0-1,1V3H7V1A1,1,0,0,0,6,0H5A1,1,0,0,0,4,1V3H3A3,3,0,0,0,0,6V21a3,3,0,0,0,3,3H21a3,3,0,0,0,3-3V6a3,3,0,0,0-3-3Zm1,18a1,1,0,0,1-1,1H3a1,1,0,0,1-1-1V10.04H22Zm0,0"/></g></svg>