<svg xmlns="http://www.w3.org/2000/svg" width="70" height="70" viewBox="0 0 70 70"><defs><style>.a{fill:none;}.b{fill:#0a4291;}.c{fill:#2bc70e;}</style></defs><g transform="translate(-1713.459 -218.459)"><rect class="a" width="70" height="70" transform="translate(1713.459 218.459)"/><g transform="translate(1777.741 282.788) rotate(180)"><path class="b" d="M57.136,29.454a1.866,1.866,0,0,0-1.959,1.716A25.776,25.776,0,1,1,29.451,3.681,25.469,25.469,0,0,1,46.3,10l-1.578,1.581a1.84,1.84,0,0,0,1.3,3.141h6.136a1.841,1.841,0,0,0,1.841-1.841V6.749a1.841,1.841,0,0,0-3.141-1.3L48.9,7.4A29.1,29.1,0,0,0,29.451,0a29.451,29.451,0,1,0,29.4,31.415A1.844,1.844,0,0,0,57.136,29.454Z"/><path class="c" d="M23.773,5.1l11.7,11.7a1.8,1.8,0,0,1,0,2.546L32.927,21.9a1.8,1.8,0,0,1-2.546,0L22.5,14.014,5.618,30.9a1.8,1.8,0,0,1-2.546,0L.527,28.35a1.8,1.8,0,0,1,0-2.546l20.7-20.7A1.8,1.8,0,0,1,23.773,5.1Z" transform="translate(11.428 11.114)"/></g></g></svg>