<svg xmlns="http://www.w3.org/2000/svg" width="75.009" height="75" viewBox="0 0 75.009 75"><defs><style>.a{fill:none;}.b{fill:#2bc70e;}.c{fill:rgba(10,66,145,0.7);}.d{fill:rgba(10,66,145,0.4);}.e{fill:rgba(10,66,145,0.2);}.f{fill:rgba(10,66,145,0.8);}.g{fill:rgba(10,66,145,0.6);}.h{fill:rgba(10,66,145,0.5);}.i{fill:rgba(10,66,145,0.9);}.j{fill:rgba(10,66,145,0.3);}.k{fill:#0a4291;}</style></defs><g transform="translate(-1711.955 -217.459)"><rect class="a" width="75" height="75" transform="translate(1711.955 217.459)"/><g transform="translate(1778.741 283.788) rotate(180)"><path class="b" d="M15.849,4.929l7.8,7.8a1.2,1.2,0,0,1,0,1.7l-1.7,1.7a1.2,1.2,0,0,1-1.7,0L15,10.868,3.746,22.123a1.2,1.2,0,0,1-1.7,0l-1.7-1.7a1.2,1.2,0,0,1,0-1.7l13.8-13.8A1.2,1.2,0,0,1,15.849,4.929Z" transform="translate(15.356 14.11)"/><g transform="translate(66.777 66.322) rotate(-180)"><ellipse class="c" cx="8.5" cy="8" rx="8.5" ry="8" transform="translate(6.001 48.993)"/><ellipse class="d" cx="7" cy="6.5" rx="7" ry="6.5" transform="translate(58.992 43.994)"/><ellipse class="e" cx="5.5" cy="6" rx="5.5" ry="6" transform="translate(53.993 11.001)"/><ellipse class="f" cx="8.489" cy="8.282" rx="8.489" ry="8.282" transform="translate(0.001 28.645)"/><ellipse class="g" cx="7.717" cy="7.52" rx="7.717" ry="7.52" transform="translate(25.153 59.953)"/><ellipse class="h" cx="7.331" cy="7.138" rx="7.331" ry="7.138" transform="translate(45.369 57.422)"/><ellipse class="i" cx="8.874" cy="8.662" rx="8.874" ry="8.662" transform="translate(8.798 8.656)"/><ellipse class="j" cx="6.559" cy="6.438" rx="6.559" ry="6.438" transform="translate(61.881 26.222)"/><ellipse class="k" cx="9.5" cy="9" rx="9.5" ry="9" transform="translate(29.996 0.001)"/></g></g></g></svg>