<svg xmlns="http://www.w3.org/2000/svg" width="50" height="50" viewBox="0 0 50 50"><defs><style>.a{fill:rgba(203,39,39,0.12);}.b{fill:#cb2727;}</style></defs><rect class="a" width="50" height="50" rx="10"/><g transform="translate(-60.544 13)"><g transform="translate(76.544)"><path class="b" d="M113.183,170.8H98.416a.8.8,0,0,0-.809.787v12.3a3.849,3.849,0,0,0,3.9,3.792H110.1a3.849,3.849,0,0,0,3.9-3.792v-12.3A.8.8,0,0,0,113.183,170.8Zm-9.328,12.137a.994.994,0,0,1-1.988,0v-7.394a.994.994,0,0,1,1.988,0Zm5.878,0a.994.994,0,0,1-1.988,0v-7.394a.994.994,0,0,1,1.988,0Z" transform="translate(-96.801 -163.683)"/><path class="b" d="M92.1,1.225H88.583v-.3A.94.94,0,0,0,87.632,0h-4.18A.941.941,0,0,0,82.5.928v.3H78.986a2.415,2.415,0,0,0-2.442,2.382V5.134a.5.5,0,0,0,.507.495H94.034a.5.5,0,0,0,.507-.495V3.607A2.415,2.415,0,0,0,92.1,1.225Z" transform="translate(-76.544)"/></g></g></svg>