<svg xmlns="http://www.w3.org/2000/svg" width="50" height="50" viewBox="0 0 50 50"><defs><style>.a{fill:rgba(10,66,145,0.15);}.b{fill:#0a4291;}</style></defs><rect class="a" width="50" height="50" rx="10"/><g transform="translate(-38.477 13)"><path class="b" d="M71.69,6.925,66.231.375a1.118,1.118,0,0,0-1.671,0L59.1,6.925a1.017,1.017,0,0,0-.153,1.16,1.03,1.03,0,0,0,.989.631h3.275V19.633H57.755a.521.521,0,0,0-.427.188L54.6,23.1a.561.561,0,0,0-.068.6.5.5,0,0,0,.495.307H67.034a.525.525,0,0,0,.546-.546V8.717h3.275a1.03,1.03,0,0,0,.99-.631A.985.985,0,0,0,71.69,6.925Z"/></g></svg>