<svg xmlns="http://www.w3.org/2000/svg" width="70" height="70" viewBox="0 0 70 70"><defs><style>.a{fill:none;}.b{fill:#0a4291;}.c{fill:#fac13d;}</style></defs><g transform="translate(-1713 -218.049)"><rect class="a" width="70" height="70" transform="translate(1713 218.049)"/><g transform="translate(1718.837 226.756)"><path class="b" d="M124.816,9.286H89.129A1.145,1.145,0,0,1,88,8.125V5.107A5.039,5.039,0,0,1,92.969,0h28.007a5.039,5.039,0,0,1,4.969,5.107V8.125A1.145,1.145,0,0,1,124.816,9.286Z" transform="translate(-77.786)"/><path class="c" d="M52.217,112H6.157A6.22,6.22,0,0,0,0,118.268v21.821a6.22,6.22,0,0,0,6.157,6.268h3.876v-9.286a8.293,8.293,0,0,1,8.209-8.357h21.89a8.293,8.293,0,0,1,8.209,8.357v9.286h3.876a6.22,6.22,0,0,0,6.157-6.268V118.268A6.22,6.22,0,0,0,52.217,112Z" transform="translate(0 -99.956)"/><path class="b" d="M161.071,304H138.786A2.786,2.786,0,0,0,136,306.786v13a2.786,2.786,0,0,0,2.786,2.786h22.286a2.786,2.786,0,0,0,2.786-2.786v-13A2.786,2.786,0,0,0,161.071,304Z" transform="translate(-120.742 -269.67)"/></g></g></svg>