<svg xmlns="http://www.w3.org/2000/svg" width="70" height="70" viewBox="0 0 70 70"><defs><style>.a{fill:none;}.b{fill:#0a4291;}.c{fill:#fac13d;}</style></defs><g transform="translate(-1713.459 -218.459)"><rect class="a" width="70" height="70" transform="translate(1713.459 218.459)"/><g transform="translate(1718.886 223.886)"><path class="b" d="M57.136,29.454a1.866,1.866,0,0,0-1.959,1.716A25.776,25.776,0,1,1,29.451,3.681,25.469,25.469,0,0,1,46.3,10l-1.578,1.581a1.84,1.84,0,0,0,1.3,3.141h6.136a1.841,1.841,0,0,0,1.841-1.841V6.749a1.841,1.841,0,0,0-3.141-1.3L48.9,7.4A29.1,29.1,0,0,0,29.451,0a29.451,29.451,0,1,0,29.4,31.415A1.844,1.844,0,0,0,57.136,29.454Z"/><path class="c" d="M35.051,10.617,21.778,6.1a1.864,1.864,0,0,0-1.219,0L7.287,10.617A1.891,1.891,0,0,0,6,12.412V22.57c0,12.4,13.839,18.425,14.428,18.675a1.906,1.906,0,0,0,1.481,0c.589-.253,14.428-6.277,14.428-18.675V12.412a1.891,1.891,0,0,0-1.287-1.795ZM29.476,20.2l-6.952,8.848a2.529,2.529,0,0,1-3.633.359l-4.424-3.792a2.527,2.527,0,0,1,3.289-3.838l2.422,2.076L25.5,17.084a2.527,2.527,0,0,1,3.977,3.12Z" transform="translate(8.282 8.105)"/></g></g></svg>