<svg xmlns="http://www.w3.org/2000/svg" width="50" height="50.099" viewBox="0 0 50 50.099"><defs><style>.a{fill:none;}.b{fill:#fff;}</style></defs><g transform="translate(-1395 -725)"><rect class="a" width="50" height="50" transform="translate(1395 725)"/><g transform="translate(208 167)"><g transform="translate(1131 562)"><g transform="translate(87.049)"><path class="b" d="M320,0V11.525h11.525Z" transform="translate(-320)"/></g><g transform="translate(64)"><path class="b" d="M87.049,14.406a2.886,2.886,0,0,1-2.881-2.881V0H66.881A2.886,2.886,0,0,0,64,2.881V43.218A2.884,2.884,0,0,0,66.881,46.1H95.693a2.882,2.882,0,0,0,2.881-2.881V14.406ZM75.525,40.337H69.762V31.693h5.762Zm8.644,0H78.406V25.931h5.762Zm8.644,0H87.049V20.168h5.762Z" transform="translate(-64)"/></g></g></g></g></svg>