<svg xmlns="http://www.w3.org/2000/svg" width="24" height="24" viewBox="0 0 24 24"><defs><style>.a{fill:none;}.b{fill:#0a4291;}</style></defs><g transform="translate(-1713 -218)"><rect class="a" width="24" height="24" transform="translate(1713 218)"/><g transform="translate(1715.096 219.753)"><path class="b" d="M12.011,82.473l-10.7,10.7a.426.426,0,0,0-.111.2L.012,98.132a.421.421,0,0,0,.409.523.419.419,0,0,0,.1-.013l4.761-1.186a.421.421,0,0,0,.2-.111l10.7-10.7Zm0,0" transform="translate(0 -78.409)"/><path class="b" d="M339.958,2.035,338.767.843a2.157,2.157,0,0,0-2.979,0L334.328,2.3l4.17,4.17,1.459-1.459a2.107,2.107,0,0,0,0-2.979Zm0,0" transform="translate(-320.554 0)"/></g></g></svg>