<svg xmlns="http://www.w3.org/2000/svg" width="24" height="24" viewBox="0 0 24 24"><defs><style>.a{fill:none;}.b{fill:#0a4291;}</style></defs><g transform="translate(-1713 -218)"><rect class="a" width="24" height="24" transform="translate(1713 218)"/><g transform="translate(1691.723 133.651)"><path class="b" d="M29.527,96.891a3.771,3.771,0,1,0-3.771-3.771A3.771,3.771,0,0,0,29.527,96.891Zm1.965-2.447c-.186.785-.985,1.08-1.942,1.08s-1.756-.295-1.942-1.08Zm4.477,6.352v1.243a.6.6,0,0,1-.339.473,15.55,15.55,0,0,1-6.085.884,15.039,15.039,0,0,1-6.02-.886.422.422,0,0,1-.247-.387V100.8a3.6,3.6,0,0,1,3.24-3.623,5,5,0,0,0,6.064,0A3.68,3.68,0,0,1,35.969,100.8Zm7.308-3.37v.736a.39.39,0,0,1-.228.28,9.3,9.3,0,0,1-3.615.523,9.407,9.407,0,0,1-3.63-.523.378.378,0,0,1-.219-.28v-.736a2.232,2.232,0,0,1,.254-1,2.153,2.153,0,0,1,1.755-1.148,2.994,2.994,0,0,0,3.618,0A2.207,2.207,0,0,1,43.277,97.426ZM39.41,90.649a2.232,2.232,0,1,0,2.232,2.232A2.232,2.232,0,0,0,39.41,90.649Zm0,3.7a1.173,1.173,0,0,1-1.173-.652h2.346A1.173,1.173,0,0,1,39.41,94.345Z"/></g></g></svg>