<svg xmlns="http://www.w3.org/2000/svg" width="24" height="24" viewBox="0 0 24 24"><defs><style>.a{fill:none;}.b{fill:#9d9d9d;}</style></defs><g transform="translate(-1713 -218)"><rect class="a" width="24" height="24" transform="translate(1713 218)"/><g transform="translate(1715 220)"><path class="b" d="M19.416,10.009a.634.634,0,0,0-.666.583,8.759,8.759,0,1,1-8.742-9.341A8.655,8.655,0,0,1,15.732,3.4l-.536.537A.625.625,0,0,0,15.638,5h2.085a.626.626,0,0,0,.626-.626V2.294a.626.626,0,0,0-1.068-.442l-.664.664A9.889,9.889,0,0,0,10.008,0,10.008,10.008,0,1,0,20,10.675.627.627,0,0,0,19.416,10.009Z"/><path class="b" d="M15.872,7.569l-4.51-1.534a.633.633,0,0,0-.414,0L6.437,7.569A.643.643,0,0,0,6,8.179V11.63c0,4.213,4.7,6.261,4.9,6.346a.648.648,0,0,0,.5,0c.2-.086,4.9-2.133,4.9-6.346V8.179a.643.643,0,0,0-.437-.61Zm-1.894,3.258-2.362,3.007a.86.86,0,0,1-1.235.122l-1.5-1.289a.859.859,0,0,1,1.118-1.3l.823.705,1.808-2.3a.859.859,0,0,1,1.351,1.06Z" transform="translate(-1.147 -1.207)"/></g></g></svg>