<svg xmlns="http://www.w3.org/2000/svg" width="24" height="24" viewBox="0 0 24 24"><defs><style>.a{fill:none;}.b{fill:#0a4291;}</style></defs><g transform="translate(-1713 -218)"><rect class="a" width="24" height="24" transform="translate(1713 218)"/><g transform="translate(1715 141.824)"><g transform="translate(6.325 84.917)"><g transform="translate(0 0)"><path class="b" d="M160.151,156.416a3.735,3.735,0,1,0,3.735,3.735A3.737,3.737,0,0,0,160.151,156.416Zm-.283,2.627a.857.857,0,0,0-.85.85h-1.236a2.111,2.111,0,0,1,2.086-2.086Z" transform="translate(-156.416 -156.416)"/></g></g><g transform="translate(0 82.176)"><g transform="translate(0 0)"><path class="b" d="M19.886,87.982c-1.094-1.362-5-5.806-9.826-5.806S1.329,86.62.234,87.982a1.074,1.074,0,0,0,0,1.34c1.094,1.362,5,5.806,9.826,5.806s8.731-4.444,9.826-5.806A1.074,1.074,0,0,0,19.886,87.982ZM10.06,93.341a4.689,4.689,0,1,1,4.689-4.689A4.689,4.689,0,0,1,10.06,93.341Z" transform="translate(0 -82.176)"/></g></g></g></g></svg>