<svg xmlns="http://www.w3.org/2000/svg" width="50" height="50" viewBox="0 0 50 50"><defs><style>.a{fill:none;}.b{fill:#0a4291;}</style></defs><g transform="translate(-590 -496)"><rect class="a" width="50" height="50" transform="translate(590 496)"/><g transform="translate(-947 -69)"><g transform="translate(1467.979 103.522)"><path class="b" d="M44.363,22.328A11.164,11.164,0,1,0,33.2,11.164,11.164,11.164,0,0,0,44.363,22.328ZM49.652,15.6c-.508,1.679-2.683,2.941-5.291,2.941s-4.783-1.262-5.291-2.941ZM67.847,38.5v1.54a.77.77,0,0,1-.77.77h-4.62v4.62a.77.77,0,0,1-.77.77h-1.54a.77.77,0,0,1-.77-.77v-4.62h-4.62a.77.77,0,0,1-.77-.77V38.5a.77.77,0,0,1,.77-.77h4.62v-4.62a.77.77,0,0,1,.77-.77h1.54a.77.77,0,0,1,.77.77v4.62h4.62A.77.77,0,0,1,67.847,38.5Zm-15.4,0v1.54a2.281,2.281,0,0,0,.3,1.121,77.682,77.682,0,0,1-8.387.418c-10.765,0-16.032-1.759-17.964-2.618a1.667,1.667,0,0,1-.9-1.4v-3.68a10.812,10.812,0,0,1,9.556-10.7.894.894,0,0,1,.537.147,14.9,14.9,0,0,0,17.541,0,.894.894,0,0,1,.537-.147,10.828,10.828,0,0,1,9.19,7.954,2.284,2.284,0,0,0-1.173-.331h-1.54a2.312,2.312,0,0,0-2.31,2.31v3.08h-3.08A2.312,2.312,0,0,0,52.448,38.5Z" transform="translate(47.521 463.478)"/></g></g></g></svg>