<svg xmlns="http://www.w3.org/2000/svg" width="50" height="50" viewBox="0 0 50 50"><defs><style>.a{fill:#0a4291;}.b{fill:none;}</style></defs><g transform="translate(-935 -725)"><g transform="translate(937 727)"><path class="a" d="M39.264,6.736A23,23,0,0,0,6.736,39.264,23,23,0,0,0,39.264,6.736ZM23,21.563a6.468,6.468,0,0,1,1.768,12.69.451.451,0,0,0-.331.433V35.9a1.464,1.464,0,0,1-1.368,1.476,1.438,1.438,0,0,1-1.507-1.436V34.685a.45.45,0,0,0-.329-.432,6.479,6.479,0,0,1-4.7-6.181,1.461,1.461,0,0,1,1.4-1.477,1.437,1.437,0,0,1,1.48,1.437A3.594,3.594,0,1,0,23,24.437a6.468,6.468,0,0,1-1.768-12.69.451.451,0,0,0,.331-.433V10.1a1.464,1.464,0,0,1,1.368-1.476,1.438,1.438,0,0,1,1.507,1.436v1.253a.45.45,0,0,0,.329.432,6.479,6.479,0,0,1,4.7,6.181,1.461,1.461,0,0,1-1.4,1.477,1.437,1.437,0,0,1-1.48-1.437A3.594,3.594,0,1,0,23,21.562Z" transform="translate(0 0)"/></g><rect class="b" width="50" height="50" transform="translate(935 725)"/></g></svg>