<svg xmlns="http://www.w3.org/2000/svg" xmlns:xlink="http://www.w3.org/1999/xlink" width="410.321" height="326.912" viewBox="0 0 410.321 326.912"><defs><style>.a{fill:url(#a);}.b,.f{fill:#fff;}.c{fill:#0a4291;}.d{fill:url(#b);}.e{fill:rgba(255,255,255,0.08);}.f{opacity:0.78;}.g{fill:url(#c);}.h{fill:url(#d);}.i{fill:url(#e);}.j{fill:url(#f);}.k{fill:url(#g);}.l{fill:#7d97f4;}.m{fill:url(#h);}.n{fill:url(#i);}.o{fill:url(#j);}.p{fill:url(#k);}.q{fill:url(#l);}.r{fill:url(#m);}.s{fill:url(#n);}.t{fill:url(#o);}.u{fill:url(#p);}.v{fill:url(#q);}.w{fill:url(#r);}.x{fill:url(#s);}.y{fill:url(#t);}.z{fill:url(#u);}</style><linearGradient id="a" x1="0.847" y1="0.099" x2="-0.449" y2="1.595" gradientUnits="objectBoundingBox"><stop offset="0" stop-color="#09005d"/><stop offset="1" stop-color="#1a0f91"/></linearGradient><linearGradient id="b" x1="0.497" y1="1.094" x2="0.493" y2="1.991" gradientUnits="objectBoundingBox"><stop offset="0" stop-color="#fff" stop-opacity="0.078"/><stop offset="1" stop-color="#4f52ff"/></linearGradient><linearGradient id="c" x1="0.899" y1="1.165" x2="0.043" y2="-0.157" gradientUnits="objectBoundingBox"><stop offset="0" stop-color="#e1473d"/><stop offset="1" stop-color="#e9605a"/></linearGradient><linearGradient id="d" x1="0.948" y1="-3.301" x2="0.534" y2="0.216" gradientUnits="objectBoundingBox"><stop offset="0" stop-color="#ff928e"/><stop offset="1" stop-color="#feb3b1"/></linearGradient><linearGradient id="e" x1="0.265" y1="0.534" x2="1.371" y2="0.383" xlink:href="#c"/><linearGradient id="f" x1="0.66" y1="-15.283" x2="0.555" y2="-4.993" xlink:href="#d"/><linearGradient id="g" x1="-1.487" y1="0.452" x2="8.756" y2="0.699" xlink:href="#c"/><linearGradient id="h" x1="0.387" y1="0.417" x2="1.045" y2="1.226" gradientUnits="objectBoundingBox"><stop offset="0" stop-color="#2b3582"/><stop offset="1" stop-color="#150e42"/></linearGradient><linearGradient id="i" x1="0.5" y1="0.899" x2="0.5" y2="2.579" gradientUnits="objectBoundingBox"><stop offset="0" stop-color="#fe7062"/><stop offset="1" stop-color="#ff928e"/></linearGradient><linearGradient id="j" x1="0.336" y1="0.26" x2="1.697" y2="1.995" xlink:href="#h"/><linearGradient id="k" x1="0.535" y1="0.274" x2="1.319" y2="-4.136" xlink:href="#h"/><linearGradient id="l" x1="-0.199" y1="0.785" x2="1.522" y2="0.03" xlink:href="#h"/><linearGradient id="m" x1="0.592" y1="1.243" x2="0.564" y2="1.027" xlink:href="#i"/><linearGradient id="n" x1="1.029" y1="-0.36" x2="0.219" y2="1.01" xlink:href="#a"/><linearGradient id="o" y1="0.5" x2="1" y2="0.5" gradientUnits="objectBoundingBox"><stop offset="0" stop-color="#dae3fe"/><stop offset="1" stop-color="#e9effd"/></linearGradient><linearGradient id="p" x1="0.39" y1="-0.467" x2="0.567" y2="0.954" xlink:href="#h"/><linearGradient id="q" x1="0" y1="0.5" x2="1" y2="0.5" xlink:href="#a"/><linearGradient id="r" x1="1.018" y1="-0.604" x2="0.278" y2="0.973" xlink:href="#a"/><linearGradient id="s" x1="7.276" y1="-1.742" x2="-4.856" y2="2.272" gradientUnits="objectBoundingBox"><stop offset="0" stop-color="#fff"/><stop offset="1" stop-color="#d6d6d6"/></linearGradient><linearGradient id="t" x1="3.264" y1="-2.519" x2="-0.575" y2="1.675" xlink:href="#s"/><linearGradient id="u" x1="2.506" y1="-3.159" x2="0.376" y2="0.672" xlink:href="#s"/></defs><g transform="translate(-169.074 -206.071)"><g transform="translate(289.325 249.5)"><path class="a" d="M995.865,545.215A141.171,141.171,0,0,1,854.695,686.386c-77.966,0-144.663-65.966-144.663-143.932s66.7-138.409,144.663-138.409A141.171,141.171,0,0,1,995.865,545.215Z" transform="translate(-710.032 -402.902)"/><g transform="translate(10.774 7.584)"><path class="b" d="M749.537,744.673a.3.3,0,0,1-.08-.01.31.31,0,0,1-.22-.379,126.8,126.8,0,0,1,5.737-16.73.309.309,0,1,1,.57.242,126.122,126.122,0,0,0-5.708,16.649A.31.31,0,0,1,749.537,744.673Z" transform="translate(-749.227 -644.935)"/><path class="b" d="M828.026,483.1a.309.309,0,0,1-.247-.5c26.03-34.518,67.962-55.126,112.168-55.126a133.755,133.755,0,0,1,54.26,11.372.31.31,0,0,1-.249.567,133.137,133.137,0,0,0-54.01-11.32c-44.013,0-85.761,20.516-111.674,54.88A.308.308,0,0,1,828.026,483.1Z" transform="translate(-806.142 -427.482)"/></g><path class="c" d="M1027.326,595.264a122.2,122.2,0,0,1-122.2,122.2c-67.488,0-125.221-57.1-125.221-124.589s57.733-119.808,125.221-119.808A122.2,122.2,0,0,1,1027.326,595.264Z" transform="translate(-760.7 -452.951)"/><path class="d" d="M1111.193,595.264a122.2,122.2,0,0,0-122.2-122.2,128.15,128.15,0,0,0-93.43,40.131L989.7,591.52l19.352,124.3A122.225,122.225,0,0,0,1111.193,595.264Z" transform="translate(-844.567 -452.951)"/><path class="e" d="M1018.229,595.795c0,60.907-50.4,110.282-112.573,110.282S790.3,654.545,790.3,593.638s53.186-108.124,115.358-108.124S1018.229,534.888,1018.229,595.795Z" transform="translate(-768.235 -461.978)"/><path class="f" d="M843.921,868.31a9.408,9.408,0,1,1-8.845-9.939A9.408,9.408,0,0,1,843.921,868.31Z" transform="translate(-793.486 -732.335)"/><path class="f" d="M1583.369,911.349a9.408,9.408,0,1,1-8.846-9.939A9.408,9.408,0,0,1,1583.369,911.349Z" transform="translate(-1329.68 -763.544)"/><path class="f" d="M1139.4,1244.348a9.408,9.408,0,1,1-10.945,7.564A9.408,9.408,0,0,1,1139.4,1244.348Z" transform="translate(-1013.326 -1012.117)"/><path class="f" d="M1272.483,515.7a9.408,9.408,0,1,1-10.945,7.564A9.408,9.408,0,0,1,1272.483,515.7Z" transform="translate(-1109.832 -483.757)"/><path class="f" d="M1398.516,1254.444c.956,2.412.717,4.671-.534,5.045s-3.04-1.278-4-3.69-.717-4.671.533-5.045S1397.56,1252.032,1398.516,1254.444Z" transform="translate(-1205.561 -1016.836)"/><path class="f" d="M1101.035,563.324c.956,2.412.717,4.671-.534,5.045s-3.04-1.278-4-3.69-.717-4.671.534-5.045S1100.079,560.912,1101.035,563.324Z" transform="translate(-989.85 -515.686)"/><path class="f" d="M1552.422,1128.773c2.07,1.565,3.038,3.62,2.163,4.589s-3.262.486-5.331-1.079-3.038-3.62-2.163-4.588S1550.352,1127.209,1552.422,1128.773Z" transform="translate(-1316.773 -927.278)"/><path class="f" d="M939.339,692.573c2.069,1.565,3.038,3.62,2.163,4.589s-3.262.486-5.331-1.079-3.038-3.62-2.163-4.589S937.269,691.009,939.339,692.573Z" transform="translate(-872.209 -610.978)"/><path class="f" d="M1577.624,739.552c2.343-1.115,4.612-1.028,5.069.195s-1.071,3.118-3.414,4.234-4.612,1.028-5.069-.195S1575.281,740.668,1577.624,739.552Z" transform="translate(-1336.612 -645.62)"/><path class="f" d="M907.978,1082.652c2.343-1.115,4.612-1.028,5.069.194s-1.072,3.119-3.414,4.234-4.612,1.028-5.069-.195S905.636,1083.767,907.978,1082.652Z" transform="translate(-851.034 -894.411)"/><path class="f" d="M1441.876,588.238c1.423-2.17,3.408-3.274,4.433-2.466s.7,3.222-.719,5.391-3.408,3.274-4.433,2.466S1440.453,590.407,1441.876,588.238Z" transform="translate(-1239.755 -534.486)"/><path class="f" d="M1047.715,1229.158c1.423-2.17,3.408-3.273,4.433-2.465s.7,3.221-.719,5.391-3.408,3.273-4.433,2.465S1046.292,1231.328,1047.715,1229.158Z" transform="translate(-953.939 -999.235)"/><path class="g" d="M1009.863,534.961l-39.978-74.393a2.163,2.163,0,0,1,1.906-3.188h9.733a2.163,2.163,0,0,0,1.579-3.642l-49.755-53.154a2.164,2.164,0,0,0-3.681,1.995l17.165,69.889a2.163,2.163,0,0,0,3.687.955l7.87-8.483a2.164,2.164,0,0,1,3.428.336l44.3,71.845a2.164,2.164,0,0,0,2.935.732h0A2.164,2.164,0,0,0,1009.863,534.961Z" transform="translate(-869.246 -399.89)"/><path class="h" d="M961.085,484.107a.309.309,0,0,1-.306-.267c-.093-.59-5.071-20.615-13.318-53.575a1.2,1.2,0,0,1,2.065-1.081l10.246,11.651a.309.309,0,0,1-.465.408l-10.245-11.651a.581.581,0,0,0-1,.523c3.976,15.891,13.234,52.928,13.33,53.642a.308.308,0,0,1-.265.348A.236.236,0,0,1,961.085,484.107Z" transform="translate(-882.171 -420.833)"/><path class="i" d="M1230.183,844.6l73.857-2.4a2.163,2.163,0,0,1,1.953,3.158L1301.516,854a2.164,2.164,0,0,0,2.507,3.078l70.083-19.727a2.164,2.164,0,0,0-.078-4.186l-69.952-16.908a2.164,2.164,0,0,0-2.544,2.835l3.912,10.89a2.163,2.163,0,0,1-1.875,2.889l-73.581,7.411a2.163,2.163,0,0,0-2,2.269h0A2.163,2.163,0,0,0,1230.183,844.6Z" transform="translate(-1085.615 -701.763)"/><path class="j" d="M1571.5,854.589a.309.309,0,0,1-.074-.61l15.057-3.737a.581.581,0,0,0,0-1.129c-15.938-3.779-53.083-12.6-53.762-12.839a.309.309,0,0,1,.207-.583c.829.278,41.309,9.883,53.7,12.821a1.2,1.2,0,0,1,.01,2.331l-15.057,3.737A.316.316,0,0,1,1571.5,854.589Z" transform="translate(-1306.436 -715.889)"/><path class="k" d="M1216.712,878.255a10.048,10.048,0,1,1-10.048-10.048A10.048,10.048,0,0,1,1216.712,878.255Z" transform="translate(-1062.867 -739.48)"/></g><g transform="translate(169.074 283.058)"><g transform="translate(0 11.014)"><path class="l" d="M230.705,674.753a1.589,1.589,0,0,1-1.212-.561l-5.024-5.94a36.919,36.919,0,0,1-10.978-.244l-5.284,5.7a1.587,1.587,0,0,1-1.8.373l-9.082-4a1.589,1.589,0,0,1-.942-1.583l.647-7.748a36.876,36.876,0,0,1-7.584-7.94l-7.774.3a1.59,1.59,0,0,1-1.539-1.012l-3.591-9.254a1.588,1.588,0,0,1,.455-1.786l5.94-5.024a36.883,36.883,0,0,1,.244-10.978l-5.7-5.285a1.589,1.589,0,0,1-.374-1.8l4.006-9.083a1.59,1.59,0,0,1,1.582-.941l7.749.647a36.886,36.886,0,0,1,7.94-7.584l-.3-7.774a1.588,1.588,0,0,1,1.011-1.539l9.255-3.591a1.589,1.589,0,0,1,1.785.454l5.024,5.94a36.887,36.887,0,0,1,10.978.244l5.285-5.7a1.588,1.588,0,0,1,1.8-.373l9.084,4.006a1.586,1.586,0,0,1,.941,1.584l-.646,7.747a36.88,36.88,0,0,1,7.584,7.941l7.774-.3a1.593,1.593,0,0,1,1.54,1.011l3.591,9.254a1.587,1.587,0,0,1-.455,1.786l-5.94,5.024a36.875,36.875,0,0,1-.244,10.978l5.7,5.285a1.586,1.586,0,0,1,.373,1.8l-4,9.083a1.6,1.6,0,0,1-1.584.941l-7.747-.646a36.892,36.892,0,0,1-7.941,7.584l.3,7.774a1.589,1.589,0,0,1-1.011,1.54l-9.256,3.59A1.581,1.581,0,0,1,230.705,674.753Zm-5.5-8.433,5.564,6.577,8.953-3.474-.327-8.609.413-.283a35.086,35.086,0,0,0,8.234-7.865l.3-.4,8.58.716L260.8,644.2l-6.315-5.852.092-.492a35.1,35.1,0,0,0,.253-11.383l-.07-.5,6.578-5.564-3.474-8.953-8.609.328-.282-.413a35.1,35.1,0,0,0-7.864-8.234l-.4-.3.716-8.58-8.787-3.875-5.852,6.315-.492-.092a35.1,35.1,0,0,0-11.384-.254l-.5.07-5.564-6.577-8.953,3.474.327,8.608-.413.283a35.1,35.1,0,0,0-8.234,7.864l-.3.4-8.579-.717-3.875,8.788,6.315,5.853-.092.492a35.1,35.1,0,0,0-.253,11.384l.07.5-6.577,5.564,3.474,8.954,8.608-.328.282.413a35.081,35.081,0,0,0,7.865,8.234l.4.3-.716,8.58,8.788,3.874,5.852-6.314.492.092a35.1,35.1,0,0,0,11.383.253Zm-5.622-10a24.86,24.86,0,1,1,10.066-47.606,25.015,25.015,0,0,1,4.59,2.634.906.906,0,1,1-1.065,1.467,23.268,23.268,0,0,0-4.257-2.443A23.038,23.038,0,1,0,242.5,628.615a.907.907,0,0,1,1.8-.225,24.866,24.866,0,0,1-24.709,27.932Z" transform="translate(-176.429 -587.987)"/><g transform="translate(33.661 33.66)"><path class="l" d="M311.528,732.8a9.723,9.723,0,1,1,1.616-19.307,9.722,9.722,0,0,1-1.616,19.307Zm-.021-17.632A7.909,7.909,0,0,0,310.2,730.87a8.032,8.032,0,0,0,1.333.113,7.909,7.909,0,0,0,1.312-15.706A8.037,8.037,0,0,0,311.508,715.163Z" transform="translate(-301.796 -713.35)"/></g></g><g transform="translate(82.487)"><path class="l" d="M494.64,573.677a.812.812,0,0,1-.238-.036l-2.8-.869a.805.805,0,0,1-.566-.744l-.066-2.118a11.248,11.248,0,0,1-2.294-1.9l-2.093.322a.8.8,0,0,1-.834-.419l-1.368-2.6a.807.807,0,0,1,.125-.927l1.45-1.543a11.241,11.241,0,0,1-.273-2.971l-1.708-1.253a.807.807,0,0,1-.293-.888l.869-2.8a.805.805,0,0,1,.747-.567l2.115-.066A11.23,11.23,0,0,1,489.312,552l-.322-2.092a.807.807,0,0,1,.42-.835l2.6-1.367a.8.8,0,0,1,.927.126l1.543,1.449a11.2,11.2,0,0,1,2.969-.273L498.7,547.3a.807.807,0,0,1,.888-.293l2.8.869a.806.806,0,0,1,.567.744l.067,2.117a11.239,11.239,0,0,1,2.294,1.905l2.093-.322a.8.8,0,0,1,.835.422l1.367,2.6a.805.805,0,0,1-.126.926l-1.449,1.543a11.229,11.229,0,0,1,.273,2.97l1.708,1.253a.8.8,0,0,1,.293.889l-.869,2.8a.806.806,0,0,1-.742.566l-2.12.067a11.25,11.25,0,0,1-1.905,2.294l.322,2.092a.806.806,0,0,1-.42.835l-2.6,1.368a.809.809,0,0,1-.928-.128l-1.541-1.447a11.1,11.1,0,0,1-2.97.273l-1.253,1.709A.8.8,0,0,1,494.64,573.677Zm-2.409-1.975,2.254.7,1.474-2.01.333.024a10.132,10.132,0,0,0,3.243-.3l.323-.084,1.816,1.7,2.087-1.1-.379-2.462.252-.219a10.036,10.036,0,0,0,2.081-2.505l.169-.288,2.491-.078.7-2.253-2.01-1.475.023-.332a10.02,10.02,0,0,0-.3-3.243l-.084-.323,1.705-1.816-1.1-2.087-2.462.379-.219-.252a10.029,10.029,0,0,0-2.506-2.081l-.288-.169-.078-2.491-2.254-.7-1.474,2.01-.333-.024a10.06,10.06,0,0,0-3.243.3l-.323.084-1.816-1.705-2.088,1.1.379,2.462-.252.219a10.023,10.023,0,0,0-2.081,2.505l-.169.288-2.491.078-.7,2.254,2.01,1.473-.023.333a10.038,10.038,0,0,0,.3,3.244l.084.323L485.579,565l1.1,2.088,2.462-.379.219.252a10.038,10.038,0,0,0,2.506,2.081l.288.169Zm4.712-3.7a7.683,7.683,0,1,1,7.4-9.751.6.6,0,0,1-1.164.326,6.477,6.477,0,1,0-11.972,4.754,6.479,6.479,0,0,0,11.263.352.6.6,0,1,1,1.033.628A7.709,7.709,0,0,1,496.943,568Z" transform="translate(-483.64 -546.968)"/><g transform="translate(10.144 10.144)"><path class="l" d="M524.632,591.168a3.209,3.209,0,1,1,2.145-.822A3.214,3.214,0,0,1,524.632,591.168Zm0-5.211a2,2,0,0,0-1.488,3.338,2.057,2.057,0,0,0,2.826.151,2,2,0,0,0,.151-2.826A2.006,2.006,0,0,0,524.63,585.957Z" transform="translate(-521.421 -584.748)"/></g></g><g transform="translate(86.487 81)"><path class="l" d="M494.64,573.677a.812.812,0,0,1-.238-.036l-2.8-.869a.805.805,0,0,1-.566-.744l-.066-2.118a11.248,11.248,0,0,1-2.294-1.9l-2.093.322a.8.8,0,0,1-.834-.419l-1.368-2.6a.807.807,0,0,1,.125-.927l1.45-1.543a11.241,11.241,0,0,1-.273-2.971l-1.708-1.253a.807.807,0,0,1-.293-.888l.869-2.8a.805.805,0,0,1,.747-.567l2.115-.066A11.23,11.23,0,0,1,489.312,552l-.322-2.092a.807.807,0,0,1,.42-.835l2.6-1.367a.8.8,0,0,1,.927.126l1.543,1.449a11.2,11.2,0,0,1,2.969-.273L498.7,547.3a.807.807,0,0,1,.888-.293l2.8.869a.806.806,0,0,1,.567.744l.067,2.117a11.239,11.239,0,0,1,2.294,1.905l2.093-.322a.8.8,0,0,1,.835.422l1.367,2.6a.805.805,0,0,1-.126.926l-1.449,1.543a11.229,11.229,0,0,1,.273,2.97l1.708,1.253a.8.8,0,0,1,.293.889l-.869,2.8a.806.806,0,0,1-.742.566l-2.12.067a11.25,11.25,0,0,1-1.905,2.294l.322,2.092a.806.806,0,0,1-.42.835l-2.6,1.368a.809.809,0,0,1-.928-.128l-1.541-1.447a11.1,11.1,0,0,1-2.97.273l-1.253,1.709A.8.8,0,0,1,494.64,573.677Zm-2.409-1.975,2.254.7,1.474-2.01.333.024a10.132,10.132,0,0,0,3.243-.3l.323-.084,1.816,1.7,2.087-1.1-.379-2.462.252-.219a10.036,10.036,0,0,0,2.081-2.505l.169-.288,2.491-.078.7-2.253-2.01-1.475.023-.332a10.02,10.02,0,0,0-.3-3.243l-.084-.323,1.705-1.816-1.1-2.087-2.462.379-.219-.252a10.029,10.029,0,0,0-2.506-2.081l-.288-.169-.078-2.491-2.254-.7-1.474,2.01-.333-.024a10.06,10.06,0,0,0-3.243.3l-.323.084-1.816-1.705-2.088,1.1.379,2.462-.252.219a10.023,10.023,0,0,0-2.081,2.505l-.169.288-2.491.078-.7,2.254,2.01,1.473-.023.333a10.038,10.038,0,0,0,.3,3.244l.084.323L485.579,565l1.1,2.088,2.462-.379.219.252a10.038,10.038,0,0,0,2.506,2.081l.288.169Zm4.712-3.7a7.683,7.683,0,1,1,7.4-9.751.6.6,0,0,1-1.164.326,6.477,6.477,0,1,0-11.972,4.754,6.479,6.479,0,0,0,11.263.352.6.6,0,1,1,1.033.628A7.709,7.709,0,0,1,496.943,568Z" transform="translate(-483.64 -546.968)"/><g transform="translate(10.144 10.144)"><path class="l" d="M524.632,591.168a3.209,3.209,0,1,1,2.145-.822A3.214,3.214,0,0,1,524.632,591.168Zm0-5.211a2,2,0,0,0-1.488,3.338,2.057,2.057,0,0,0,2.826.151,2,2,0,0,0,.151-2.826A2.006,2.006,0,0,0,524.63,585.957Z" transform="translate(-521.421 -584.748)"/></g></g></g><g transform="translate(264.074 195.058)"><g transform="translate(0 11.014)"><path class="l" d="M230.705,674.753a1.589,1.589,0,0,1-1.212-.561l-5.024-5.94a36.919,36.919,0,0,1-10.978-.244l-5.284,5.7a1.587,1.587,0,0,1-1.8.373l-9.082-4a1.589,1.589,0,0,1-.942-1.583l.647-7.748a36.876,36.876,0,0,1-7.584-7.94l-7.774.3a1.59,1.59,0,0,1-1.539-1.012l-3.591-9.254a1.588,1.588,0,0,1,.455-1.786l5.94-5.024a36.883,36.883,0,0,1,.244-10.978l-5.7-5.285a1.589,1.589,0,0,1-.374-1.8l4.006-9.083a1.59,1.59,0,0,1,1.582-.941l7.749.647a36.886,36.886,0,0,1,7.94-7.584l-.3-7.774a1.588,1.588,0,0,1,1.011-1.539l9.255-3.591a1.589,1.589,0,0,1,1.785.454l5.024,5.94a36.887,36.887,0,0,1,10.978.244l5.285-5.7a1.588,1.588,0,0,1,1.8-.373l9.084,4.006a1.586,1.586,0,0,1,.941,1.584l-.646,7.747a36.88,36.88,0,0,1,7.584,7.941l7.774-.3a1.593,1.593,0,0,1,1.54,1.011l3.591,9.254a1.587,1.587,0,0,1-.455,1.786l-5.94,5.024a36.875,36.875,0,0,1-.244,10.978l5.7,5.285a1.586,1.586,0,0,1,.373,1.8l-4,9.083a1.6,1.6,0,0,1-1.584.941l-7.747-.646a36.892,36.892,0,0,1-7.941,7.584l.3,7.774a1.589,1.589,0,0,1-1.011,1.54l-9.256,3.59A1.581,1.581,0,0,1,230.705,674.753Zm-5.5-8.433,5.564,6.577,8.953-3.474-.327-8.609.413-.283a35.086,35.086,0,0,0,8.234-7.865l.3-.4,8.58.716L260.8,644.2l-6.315-5.852.092-.492a35.1,35.1,0,0,0,.253-11.383l-.07-.5,6.578-5.564-3.474-8.953-8.609.328-.282-.413a35.1,35.1,0,0,0-7.864-8.234l-.4-.3.716-8.58-8.787-3.875-5.852,6.315-.492-.092a35.1,35.1,0,0,0-11.384-.254l-.5.07-5.564-6.577-8.953,3.474.327,8.608-.413.283a35.1,35.1,0,0,0-8.234,7.864l-.3.4-8.579-.717-3.875,8.788,6.315,5.853-.092.492a35.1,35.1,0,0,0-.253,11.384l.07.5-6.577,5.564,3.474,8.954,8.608-.328.282.413a35.081,35.081,0,0,0,7.865,8.234l.4.3-.716,8.58,8.788,3.874,5.852-6.314.492.092a35.1,35.1,0,0,0,11.383.253Zm-5.622-10a24.86,24.86,0,1,1,10.066-47.606,25.015,25.015,0,0,1,4.59,2.634.906.906,0,1,1-1.065,1.467,23.268,23.268,0,0,0-4.257-2.443A23.038,23.038,0,1,0,242.5,628.615a.907.907,0,0,1,1.8-.225,24.866,24.866,0,0,1-24.709,27.932Z" transform="translate(-176.429 -587.987)"/><g transform="translate(33.661 33.66)"><path class="l" d="M311.528,732.8a9.723,9.723,0,1,1,1.616-19.307,9.722,9.722,0,0,1-1.616,19.307Zm-.021-17.632A7.909,7.909,0,0,0,310.2,730.87a8.032,8.032,0,0,0,1.333.113,7.909,7.909,0,0,0,1.312-15.706A8.037,8.037,0,0,0,311.508,715.163Z" transform="translate(-301.796 -713.35)"/></g></g><g transform="translate(-58.513 47)"><path class="l" d="M494.64,573.677a.812.812,0,0,1-.238-.036l-2.8-.869a.805.805,0,0,1-.566-.744l-.066-2.118a11.248,11.248,0,0,1-2.294-1.9l-2.093.322a.8.8,0,0,1-.834-.419l-1.368-2.6a.807.807,0,0,1,.125-.927l1.45-1.543a11.241,11.241,0,0,1-.273-2.971l-1.708-1.253a.807.807,0,0,1-.293-.888l.869-2.8a.805.805,0,0,1,.747-.567l2.115-.066A11.23,11.23,0,0,1,489.312,552l-.322-2.092a.807.807,0,0,1,.42-.835l2.6-1.367a.8.8,0,0,1,.927.126l1.543,1.449a11.2,11.2,0,0,1,2.969-.273L498.7,547.3a.807.807,0,0,1,.888-.293l2.8.869a.806.806,0,0,1,.567.744l.067,2.117a11.239,11.239,0,0,1,2.294,1.905l2.093-.322a.8.8,0,0,1,.835.422l1.367,2.6a.805.805,0,0,1-.126.926l-1.449,1.543a11.229,11.229,0,0,1,.273,2.97l1.708,1.253a.8.8,0,0,1,.293.889l-.869,2.8a.806.806,0,0,1-.742.566l-2.12.067a11.25,11.25,0,0,1-1.905,2.294l.322,2.092a.806.806,0,0,1-.42.835l-2.6,1.368a.809.809,0,0,1-.928-.128l-1.541-1.447a11.1,11.1,0,0,1-2.97.273l-1.253,1.709A.8.8,0,0,1,494.64,573.677Zm-2.409-1.975,2.254.7,1.474-2.01.333.024a10.132,10.132,0,0,0,3.243-.3l.323-.084,1.816,1.7,2.087-1.1-.379-2.462.252-.219a10.036,10.036,0,0,0,2.081-2.505l.169-.288,2.491-.078.7-2.253-2.01-1.475.023-.332a10.02,10.02,0,0,0-.3-3.243l-.084-.323,1.705-1.816-1.1-2.087-2.462.379-.219-.252a10.029,10.029,0,0,0-2.506-2.081l-.288-.169-.078-2.491-2.254-.7-1.474,2.01-.333-.024a10.06,10.06,0,0,0-3.243.3l-.323.084-1.816-1.705-2.088,1.1.379,2.462-.252.219a10.023,10.023,0,0,0-2.081,2.505l-.169.288-2.491.078-.7,2.254,2.01,1.473-.023.333a10.038,10.038,0,0,0,.3,3.244l.084.323L485.579,565l1.1,2.088,2.462-.379.219.252a10.038,10.038,0,0,0,2.506,2.081l.288.169Zm4.712-3.7a7.683,7.683,0,1,1,7.4-9.751.6.6,0,0,1-1.164.326,6.477,6.477,0,1,0-11.972,4.754,6.479,6.479,0,0,0,11.263.352.6.6,0,1,1,1.033.628A7.709,7.709,0,0,1,496.943,568Z" transform="translate(-483.64 -546.968)"/><g transform="translate(10.144 10.144)"><path class="l" d="M524.632,591.168a3.209,3.209,0,1,1,2.145-.822A3.214,3.214,0,0,1,524.632,591.168Zm0-5.211a2,2,0,0,0-1.488,3.338,2.057,2.057,0,0,0,2.826.151,2,2,0,0,0,.151-2.826A2.006,2.006,0,0,0,524.63,585.957Z" transform="translate(-521.421 -584.748)"/></g></g></g><g transform="translate(177.331 386.58)"><g transform="translate(22.429 11.013)"><path class="l" d="M208.92,674.753a1.589,1.589,0,0,0,1.212-.561l5.025-5.94a36.919,36.919,0,0,0,10.978-.244l5.284,5.7a1.587,1.587,0,0,0,1.8.373l9.082-4a1.589,1.589,0,0,0,.942-1.583l-.647-7.748a36.875,36.875,0,0,0,7.584-7.94l7.774.3a1.59,1.59,0,0,0,1.539-1.012l3.591-9.254a1.588,1.588,0,0,0-.455-1.786l-5.94-5.024a36.883,36.883,0,0,0-.244-10.978l5.7-5.285a1.589,1.589,0,0,0,.374-1.8l-4.006-9.083a1.59,1.59,0,0,0-1.582-.941l-7.749.647a36.886,36.886,0,0,0-7.94-7.584l.3-7.774a1.588,1.588,0,0,0-1.011-1.539l-9.255-3.591a1.589,1.589,0,0,0-1.785.454l-5.024,5.94a36.887,36.887,0,0,0-10.978.244l-5.285-5.7a1.588,1.588,0,0,0-1.8-.373l-9.084,4.006a1.586,1.586,0,0,0-.941,1.584l.646,7.747a36.879,36.879,0,0,0-7.584,7.941l-7.774-.3a1.593,1.593,0,0,0-1.54,1.011l-3.591,9.254a1.587,1.587,0,0,0,.455,1.786l5.94,5.024a36.874,36.874,0,0,0,.244,10.978l-5.7,5.285a1.586,1.586,0,0,0-.373,1.8l4,9.083a1.6,1.6,0,0,0,1.584.941l7.747-.646a36.893,36.893,0,0,0,7.941,7.584l-.3,7.774a1.589,1.589,0,0,0,1.011,1.54l9.255,3.59A1.581,1.581,0,0,0,208.92,674.753Zm5.5-8.433-5.564,6.577-8.953-3.474.327-8.609-.413-.283a35.086,35.086,0,0,1-8.234-7.865l-.3-.4-8.58.716-3.874-8.788,6.315-5.852-.092-.492a35.1,35.1,0,0,1-.253-11.383l.07-.5-6.577-5.564,3.474-8.953,8.609.328.282-.413a35.1,35.1,0,0,1,7.864-8.234l.4-.3-.716-8.58,8.787-3.875,5.852,6.315.492-.092a35.1,35.1,0,0,1,11.384-.254l.5.07,5.564-6.577,8.953,3.474-.327,8.608.413.283a35.1,35.1,0,0,1,8.234,7.864l.3.4,8.579-.717,3.875,8.788-6.315,5.853.092.492a35.1,35.1,0,0,1,.253,11.384l-.07.5,6.578,5.564-3.474,8.954-8.608-.328-.282.413a35.081,35.081,0,0,1-7.865,8.234l-.4.3.716,8.58-8.788,3.874-5.852-6.314-.492.092a35.106,35.106,0,0,1-11.383.253Zm5.622-10a24.86,24.86,0,1,0-10.066-47.606,25.015,25.015,0,0,0-4.59,2.634.906.906,0,1,0,1.065,1.467,23.268,23.268,0,0,1,4.257-2.443,23.038,23.038,0,1,1-13.575,18.241.907.907,0,0,0-1.8-.225,24.866,24.866,0,0,0,24.709,27.932Z" transform="translate(-176.429 -587.987)"/><g transform="translate(33.66 33.66)"><path class="l" d="M311.509,732.8a9.723,9.723,0,1,0-1.616-19.307,9.722,9.722,0,0,0,1.616,19.307Zm.021-17.632a7.909,7.909,0,0,1,1.312,15.706,8.033,8.033,0,0,1-1.333.113,7.909,7.909,0,0,1-1.312-15.706A8.036,8.036,0,0,1,311.53,715.163Z" transform="translate(-301.796 -713.35)"/></g></g><g transform="translate(0 0)"><path class="l" d="M499.35,573.677a.812.812,0,0,0,.238-.036l2.8-.869a.805.805,0,0,0,.566-.744l.066-2.118a11.247,11.247,0,0,0,2.294-1.9l2.093.322a.8.8,0,0,0,.834-.419l1.368-2.6a.807.807,0,0,0-.125-.927l-1.45-1.543a11.242,11.242,0,0,0,.273-2.971l1.708-1.253a.807.807,0,0,0,.293-.888l-.869-2.8a.8.8,0,0,0-.747-.567l-2.115-.066A11.228,11.228,0,0,0,504.677,552l.322-2.092a.807.807,0,0,0-.42-.835l-2.6-1.367a.8.8,0,0,0-.927.126l-1.543,1.449a11.2,11.2,0,0,0-2.969-.273L495.29,547.3A.807.807,0,0,0,494.4,547l-2.8.869a.806.806,0,0,0-.567.744l-.067,2.117a11.243,11.243,0,0,0-2.294,1.905l-2.093-.322a.8.8,0,0,0-.835.422l-1.367,2.6a.805.805,0,0,0,.126.926l1.449,1.543a11.227,11.227,0,0,0-.273,2.97l-1.708,1.253a.8.8,0,0,0-.293.889l.869,2.8a.806.806,0,0,0,.742.566l2.12.067a11.256,11.256,0,0,0,1.905,2.294l-.322,2.092a.806.806,0,0,0,.42.835l2.6,1.368a.809.809,0,0,0,.928-.128l1.541-1.447a11.1,11.1,0,0,0,2.97.273l1.253,1.709A.8.8,0,0,0,499.35,573.677Zm2.409-1.975-2.254.7-1.474-2.01-.333.024a10.132,10.132,0,0,1-3.243-.3l-.323-.084-1.816,1.7-2.087-1.1.379-2.462-.252-.219a10.037,10.037,0,0,1-2.081-2.505l-.169-.288-2.491-.078-.7-2.253,2.01-1.475-.023-.332a10.021,10.021,0,0,1,.3-3.243l.084-.323-1.705-1.816,1.1-2.087,2.462.379.219-.252a10.029,10.029,0,0,1,2.506-2.081l.288-.169.078-2.491,2.254-.7,1.474,2.01.333-.024a10.059,10.059,0,0,1,3.243.3l.323.084,1.816-1.705,2.088,1.1-.379,2.462.252.219a10.022,10.022,0,0,1,2.081,2.505l.169.288,2.491.078.7,2.254-2.01,1.473.023.333a10.036,10.036,0,0,1-.3,3.244l-.084.323L508.41,565l-1.1,2.088-2.462-.379-.219.252a10.037,10.037,0,0,1-2.506,2.081l-.288.169Zm-4.712-3.7a7.683,7.683,0,1,0-7.4-9.751.6.6,0,0,0,1.164.326,6.477,6.477,0,1,1,11.972,4.754,6.479,6.479,0,0,1-11.263.352.6.6,0,1,0-1.033.628A7.709,7.709,0,0,0,497.047,568Z" transform="translate(-483.64 -546.968)"/><g transform="translate(10.144 10.144)"><path class="l" d="M524.63,591.168a3.209,3.209,0,1,0-2.145-.822A3.214,3.214,0,0,0,524.63,591.168Zm0-5.211a2,2,0,0,1,1.488,3.338,2.058,2.058,0,0,1-2.826.151,2,2,0,0,1-.151-2.826A2.006,2.006,0,0,1,524.632,585.957Z" transform="translate(-521.421 -584.748)"/></g></g></g><g transform="translate(400.743 292.929)"><path class="m" d="M1426.514,867.027s-3.431.181-3.851,7.239c0,0,7.955,7.131,18.7,8.829.807.128-1.128-5.507-1.418-6.27C1438.561,873.193,1434.2,870.854,1426.514,867.027Z" transform="translate(-1352.015 -792.029)"/><path class="n" d="M1291.325,762.519h7.24s22.219-24.54,36.793-27.015c0,0,10.144,12.949-.541,37.144a3.531,3.531,0,0,1-5.057,1.666,2.9,2.9,0,0,1-1.155-1.377l.859-20.659s-18.953,16.577-22.248,19.776S1287.176,773.3,1291.325,762.519Z" transform="translate(-1255.461 -695.82)"/><path class="o" d="M1506.907,1010.307a27.216,27.216,0,0,0-14.845-6.5l-2.36,1.443a25.745,25.745,0,0,0,4.254,4.564c2.527,1.467,6.428,3.455,9.663,3.886C1506.762,1014.123,1507.226,1012.222,1506.907,1010.307Z" transform="translate(-1401.053 -892.085)"/><path class="p" d="M1439.945,893.61c-1.869.605-2.691,3.253-7.433,1.5a41.967,41.967,0,0,1-9.754-5.138c-.039.341-.072.7-.095,1.078,0,0,8.388,7.978,19.133,9.675a1.069,1.069,0,0,0,1.155-1.441A26.975,26.975,0,0,0,1439.945,893.61Z" transform="translate(-1352.015 -808.814)"/><path class="q" d="M1520.781,1028.943a25.071,25.071,0,0,0-2.285-2.27c.319,1.916-.145,3.816-3.289,3.4-3.234-.43-7.136-2.418-9.663-3.886a20.889,20.889,0,0,0,14.067,5.4A1.6,1.6,0,0,0,1520.781,1028.943Z" transform="translate(-1412.642 -908.453)"/><path class="r" d="M1254.425,855.627l33.9.367s19.36,16.018,22.872,40.442c0,0,.583,1.8-2.916,2.1a67.2,67.2,0,0,1-19.338-21.161c-9.358-16.573-24.413-10.657-24.413-10.657-18.264,6.226-24.516-3.018-24.669-5.205Z" transform="translate(-1218.297 -783.69)"/><path class="b" d="M1280.764,753.917s3.649,18.29,21.531,25.526l6.361-.75,1.5,2.393-14.921.476a40.811,40.811,0,0,1-19.511-18.816C1275.5,762.291,1271.781,754.608,1280.764,753.917Z" transform="translate(-1243.834 -709.289)"/><path class="s" d="M1198.429,733.115a97.7,97.7,0,0,1-5.042-22.243,47.916,47.916,0,0,1,4.934-3.735,1.372,1.372,0,0,0,.536-1.779c-1.4-2.89-9.833-14.239-10.464-14.4-3.436-.857-17.525-7.556-27.448,6.017-4.259,5.825.845,23.757,20.165,42.327l.642.123a9.789,9.789,0,0,0,6.364-.935Z" transform="translate(-1159.544 -661.477)"/><path class="b" d="M1228.088,780.88s11.531,13.652,26.272,15.648c0,0,3.81-3.473,6.643-2.233s6.718,6.714,6.718,6.714h-18.929s-17.9-.631-26.841-11.484C1222.671,785.728,1224.826,783.459,1228.088,780.88Z" transform="translate(-1205.195 -729.012)"/><path class="t" d="M1212.773,661.852l-2.523,8.414a.925.925,0,0,0,.359,1.031,9.4,9.4,0,0,0,8.744.878,1.373,1.373,0,0,0,.883-1.178l.6-7.33Z" transform="translate(-1196.607 -641.944)"/><g transform="translate(9.338)"><path class="b" d="M1229.346,620.8s-1.24,8.722-4.591,11.4-9.879.663-12.084-5.913l4.393-11.243Z" transform="translate(-1207.745 -607.709)"/><path class="u" d="M1203.148,602.324a.432.432,0,0,0,.562-.346,11.272,11.272,0,0,1,1.034-3.484s-.32-1.144,2.892.585,8.036,4.268,10.876,2.756c2.769-1.474,5.574-8.894-1.744-7.52a.432.432,0,0,1-.514-.452c.09-1.219-.031-4.025-2.872-4.926-2.659-.843-4.114.357-4.714,1.082a.429.429,0,0,1-.672-.011,4.98,4.98,0,0,0-6.144-1.85c-2.622,1.156-3.03,2.771-2.987,3.778a.431.431,0,0,1-.613.411,2.591,2.591,0,0,0-3.333.988c-1.711,2.144.734,4,1.468,4.49a.432.432,0,0,1,.2.357c.007,1.115.18,5.978,2.618,8.721a.435.435,0,0,0,.724-.125l1.877-4.471a.434.434,0,0,1,.533-.245Z" transform="translate(-1194.323 -587.706)"/><path class="b" d="M1217.75,636.118s-1.146-4.668-2.887-3.152.454,4.851,2.448,5.487Z" transform="translate(-1208.885 -620.592)"/></g><path class="v" d="M1388.864,774.818l8.5-28.343a2.9,2.9,0,0,1,2.578-2.059l11.475-.785a1.628,1.628,0,0,1,1.647,2.163l-9.5,27.067a2.382,2.382,0,0,1-2.008,1.581l-11.3,1.255Z" transform="translate(-1327.291 -701.762)"/><path class="w" d="M1325.5,853.868l-.055,0-24.077-1.217a1.079,1.079,0,1,1,.109-2.155l24.077,1.217a1.079,1.079,0,0,1-.053,2.157Z" transform="translate(-1262.541 -779.933)"/><path class="x" d="M1279.681,739.075h0a.216.216,0,0,1-.215-.216c.016-5.028-1.924-11.7-1.943-11.767a.215.215,0,1,1,.413-.121c.02.067,1.978,6.8,1.961,11.89A.215.215,0,0,1,1279.681,739.075Z" transform="translate(-1245.838 -689.464)"/><path class="y" d="M1224.873,749.72a.215.215,0,0,1-.169-.082c-.053-.067-5.32-6.764-7.132-11.355a.216.216,0,1,1,.4-.158c1.789,4.532,7.018,11.18,7.07,11.246a.216.216,0,0,1-.169.349Z" transform="translate(-1201.979 -697.637)"/><path class="z" d="M1183,784.836l-.16-.069c-7.627-3.265-12.336-12.368-12.382-12.46a.216.216,0,1,1,.384-.2c.045.09,4.621,8.929,12.008,12.19l.773-1.092a.216.216,0,0,1,.353.25Z" transform="translate(-1167.513 -722.512)"/></g></g></svg>