<svg xmlns="http://www.w3.org/2000/svg" width="24" height="27" viewBox="0 0 24 27"><defs><style>.a{fill:#fff;}</style></defs><g transform="translate(-15)"><path class="a" d="M32.721,45.243a1.274,1.274,0,0,0-1.744.526,1.323,1.323,0,0,0,.516,1.776,9.636,9.636,0,0,1,4.935,8.447,9.43,9.43,0,1,1-18.857,0,9.642,9.642,0,0,1,4.9-8.43,1.323,1.323,0,0,0,.509-1.778,1.274,1.274,0,0,0-1.745-.519A12.269,12.269,0,0,0,15,55.992a12,12,0,1,0,24,0A12.261,12.261,0,0,0,32.721,45.243Z" transform="translate(0 -41.218)"/><path class="a" d="M141.286,11.148a1.286,1.286,0,0,0,1.286-1.286V1.286a1.286,1.286,0,1,0-2.573,0V9.862A1.286,1.286,0,0,0,141.286,11.148Z" transform="translate(-114.286)"/></g></svg>