<svg xmlns="http://www.w3.org/2000/svg" width="80" height="41" viewBox="0 0 80 41"><defs><style>.a{fill:none;}.b{fill:#0a4291;}</style></defs><g transform="translate(-1265 -498)"><rect class="a" width="80" height="41" transform="translate(1265 498)"/><g transform="translate(1266 409.651)"><path class="b" d="M38.6,110.824a10.737,10.737,0,1,0-10.738-10.737A10.737,10.737,0,0,0,38.6,110.824Zm5.6-6.967c-.531,2.235-2.8,3.075-5.53,3.075s-5-.839-5.53-3.075Zm12.748,18.087v3.539a1.711,1.711,0,0,1-.966,1.347c-1.857.827-6.974,2.518-17.327,2.518-10.377,0-15.294-1.7-17.141-2.524a1.2,1.2,0,0,1-.7-1.1v-3.781a10.245,10.245,0,0,1,9.226-10.315,14.235,14.235,0,0,0,17.266-.014A10.479,10.479,0,0,1,56.947,121.944Zm20.807-9.6v2.095a1.11,1.11,0,0,1-.649.8c-1.1.489-4.166,1.49-10.294,1.49s-9.237-1-10.336-1.49a1.076,1.076,0,0,1-.623-.8v-2.095a6.223,6.223,0,0,1,5.72-6.112,8.525,8.525,0,0,0,10.3-.007A6.284,6.284,0,0,1,77.754,112.348ZM21.04,115.24c-1.1.489-4.273,1.49-10.4,1.49-6.037,0-8.989-.972-10.126-1.468a.947.947,0,0,1-.513-.8v-2.116a6.034,6.034,0,0,1,5.411-6.1,8.406,8.406,0,0,0,10.224-.025,6.484,6.484,0,0,1,6.268,6.128v2.095C21.9,114.753,21.323,115.114,21.04,115.24ZM10.464,93.051a6.355,6.355,0,1,0,6.355,6.355A6.355,6.355,0,0,0,10.464,93.051Zm0,10.524c-1.646,0-3.02-.788-3.34-1.857H13.8C13.483,102.788,12.11,103.575,10.464,103.575ZM66.743,93.051A6.355,6.355,0,1,0,73.1,99.406,6.355,6.355,0,0,0,66.743,93.051Zm0,10.524c-1.646,0-3.02-.788-3.34-1.857h6.68C69.762,102.788,68.389,103.575,66.743,103.575Z"/></g></g></svg>