<svg xmlns="http://www.w3.org/2000/svg" width="50" height="50" viewBox="0 0 50 50"><defs><style>.a{fill:#0a4291;}.b{fill:none;}</style></defs><g transform="translate(-475 -725)"><path class="a" d="M43.478,18.006l-3.6-.458a18.114,18.114,0,0,0-1.091-2.634l2.225-2.866a2.849,2.849,0,0,0-.234-3.793L37.756,5.237a2.857,2.857,0,0,0-3.8-.243L31.09,7.218a18.048,18.048,0,0,0-2.636-1.091L28,2.53A2.871,2.871,0,0,0,25.148,0H20.854a2.871,2.871,0,0,0-2.848,2.524l-.458,3.6a17.839,17.839,0,0,0-2.636,1.091L12.049,4.993a2.851,2.851,0,0,0-3.793.234L5.237,8.244a2.858,2.858,0,0,0-.243,3.807l2.225,2.864a17.9,17.9,0,0,0-1.091,2.634l-3.6.458A2.871,2.871,0,0,0,0,20.854v4.294A2.871,2.871,0,0,0,2.524,28l3.6.458a18.113,18.113,0,0,0,1.091,2.634L4.993,33.953a2.849,2.849,0,0,0,.234,3.793l3.019,3.019a2.859,2.859,0,0,0,3.8.242l2.864-2.225a17.7,17.7,0,0,0,2.634,1.091l.458,3.6A2.871,2.871,0,0,0,20.854,46h4.294A2.871,2.871,0,0,0,28,43.478l.458-3.6a18.115,18.115,0,0,0,2.634-1.091l2.866,2.225a2.849,2.849,0,0,0,3.793-.234l3.019-3.019a2.855,2.855,0,0,0,.243-3.8l-2.225-2.864a17.7,17.7,0,0,0,1.091-2.634L43.47,28A2.871,2.871,0,0,0,46,25.148V20.854a2.867,2.867,0,0,0-2.522-2.848ZM23,32.585A9.584,9.584,0,1,1,32.585,23,9.595,9.595,0,0,1,23,32.585Z" transform="translate(477 727)"/><rect class="b" width="50" height="50" transform="translate(475 725)"/></g></svg>