<svg xmlns="http://www.w3.org/2000/svg" xmlns:xlink="http://www.w3.org/1999/xlink" width="483" height="448" viewBox="0 0 483 448"><defs><style>.a{fill:none;}.b{clip-path:url(#a);}.c{opacity:0.75;}.d{fill:#f2f5f9;}.e{fill:#0a4291;}.f{fill:#210055;}.g{fill:#1b1b63;}.h{fill:#ff928f;}.i{fill:#398aaa;}.j{fill:#efae95;}.k{fill:#4492b9;}.l{fill:#fec5a7;}.m{fill:#fac13d;}.n{fill:#efb59e;}.o{fill:#d69580;}.p{fill:#485999;}.q,.r{fill:#04061b;}.q{opacity:0.67;}.s{fill:#0a0a0a;}.t{fill:#1f2647;}.u{fill:#ecab15;}.v{fill:#52aacc;}.w{fill:#330e8e;}.x{fill:#f9bb5a;}.y{fill:#ffeabb;}.z{fill:#efad45;}.aa{opacity:0.27;}</style><clipPath id="a"><rect class="a" width="483" height="448" transform="translate(0 1570)"/></clipPath></defs><g class="b" transform="translate(0 -1570)"><g class="c" transform="translate(-192.63 1552.469)"><g transform="translate(-9 -1)"><path class="d" d="M621.974,422.4c-24.963,6.064-55.008,2.243-78.367,2.243H205.725c-25.982,0-54.335,4.37-78.421-6.7-21.6-9.924-38-30.611-42.967-53.827-6.083-28.452,4.48-59.447,25.46-79.607,9.989-9.6,21.992-16.824,32.632-25.7s20.26-20.108,22.85-33.717c2.43-12.764-1.6-25.735-3.794-38.542-2.326-13.6-1.888-27.773,2.913-40.7,25.185-67.838,92.18-48.6,103.829-50.842,21.411-4.12,32.864-26.694,47.473-42.879,18.333-20.311,45.128-32.229,72.413-34.261,56.282-4.192,129.247,31.3,146.808,88.1,6.179,19.986,8.252,41.1,15.024,60.9s19.667,39.132,39.41,46.047c9.251,3.241,19.26,3.5,28.813,5.7,12.606,2.9,24.688,9.512,32.319,19.957s10.16,24.968,4.686,36.688c-3.722,7.968-10.582,13.957-15.817,21.024s-8.879,16.654-5.024,24.559c3.317,6.8,10.967,10.072,16.969,14.686,15.1,11.606,19.889,33.922,12.959,51.659C656.116,408.021,640.435,417.912,621.974,422.4Z"/></g><path class="e" d="M298.044,452.183c48.876,3.259,106.3-.912,155.274.8-1.295-3.755-24.094-29.357-24.778-29.727-.541-.293-79.8-2.433-89.078-1.521C339.462,421.74,305.65,445.791,298.044,452.183Z"/><rect class="f" width="119.677" height="289.472" transform="translate(358.93 135.167)"/><path class="g" d="M348.621,122.788V424.639H358.93V135.167H478.607V424.639h9.5V122.788Z"/><path class="h" d="M327.416,361.606a25.84,25.84,0,0,1,2.045-6.659q6.174-24.654,13.674-48.95c4.005-12.971,11.621-34.884,21.524-45.028,6.345,1.65,12.825,2.947,19.189,4.348.087.1.175.206.266.306a12.615,12.615,0,0,0,1.867,3.2,25.756,25.756,0,0,1,3.5,21.739c-2.168,7.277-8.726,13.334-15.768,16.173-.443.178-4.116,26.388-6.025,31.475a117.334,117.334,0,0,1-6.664,14.664c-2.217,4.088-5.234,7.763-7.851,11.6-.036,1.292-.05,2.581-.02,3.864.1,4.457,1.416,8.974,2.152,13.354,3.287,19.549-2.206,38.587-5.753,57.767a55.334,55.334,0,0,1-7.087.483c-2-6.348-1.832-10.9-3.544-18.2-4.067-17.362-8.726-34.027-11.133-51.693A31.44,31.44,0,0,1,327.416,361.606Z"/><path class="i" d="M385.981,268.822a12.615,12.615,0,0,1-1.867-3.2c-.091-.1-.179-.2-.266-.306-6.364-1.4-12.844-2.7-19.189-4.348-9.9,10.144-17.519,32.057-21.524,45.028q-7.5,24.283-13.674,48.95a25.84,25.84,0,0,0-2.045,6.659,31.44,31.44,0,0,0,.369,8.441c2.221,16.3,7.145,51.049,7.145,51.049,5.8.322,15.812-1.6,20.939-1.289,2.354-12.51,1.579-25.352-.567-38.116-.736-4.38-2.05-8.9-2.152-13.354-.03-1.283-.016-2.572.02-3.864,2.617-3.837,5.634-7.512,7.851-11.6a117.334,117.334,0,0,0,6.664-14.664c1.909-5.087,7.231-30.33,7.674-30.509,7.041-2.839,11.951-9.862,14.119-17.139A25.756,25.756,0,0,0,385.981,268.822Z"/><path class="j" d="M404.728,263.569a87.468,87.468,0,0,1-24.388.582c-.431,1.589-1.715,3.781-2.043,4.833a77.417,77.417,0,0,0-2.813,14.491,201.053,201.053,0,0,0-.778,29.212c1.175,34.174,6.064,85.738,12.357,121.465,3.332.228,6.647.7,9.97,1.041.274.028.153-5.6.427-5.573,3.542-18.081,8.969-28.769,7.307-47.52-.44-4.966-1.229-9.924-1.06-14.907.187-5.483,1.529-10.851,2.469-16.257a339.134,339.134,0,0,0,2.408-39.755C408.874,286.165,405.623,270.39,404.728,263.569Z"/><path class="k" d="M401.614,422.062c3.437-14.965,4.642-23.166,3.153-39.962-.44-4.966-1.229-9.924-1.06-14.907.187-5.483,1.528-10.851,2.469-16.257a339.134,339.134,0,0,0,2.408-39.755c.29-25.016-2.961-40.791-3.856-47.612a87.468,87.468,0,0,1-24.388.582c-.431,1.589-1.715,3.781-2.043,4.833a77.417,77.417,0,0,0-2.813,14.491,201.05,201.05,0,0,0-.778,29.212c1.065,30.98,3.58,73.922,9.029,108.731C388.161,421.6,397.186,421.928,401.614,422.062Z"/><path class="l" d="M319.9,237.16c-.28,7.162-.248,14.617,2.8,21.1.7,1.489,1.7,3.022,3.271,3.5a5.428,5.428,0,0,0,4.4-1.041c5.634-3.71,7.555-11.029,8.218-17.741a84.315,84.315,0,0,0-.339-19.477c-.634-4.718-4.834-18.531-11.9-12.543C320.018,216.331,320.2,229.666,319.9,237.16Z"/><path class="j" d="M324.546,238.718a43.444,43.444,0,0,1,13.144,9.955,44.729,44.729,0,0,0,.909-5.7,84.26,84.26,0,0,0-.339-19.477c-.634-4.718-4.834-18.531-11.9-12.543-6.212,5.265-6.167,18.165-6.438,25.735C321.495,237.292,323.04,237.965,324.546,238.718Z"/><path class="m" d="M340.728,239.244a71.568,71.568,0,0,0-.322-15.946c-.633-4.718-6.98-18.331-14.045-12.343-5.345,4.53-8.238,14.27-8.505,21.846C318.9,232.919,339.562,238.414,340.728,239.244Z"/><path class="j" d="M435.384,181.99c-4.817,5.123-22.246,18.706-25.271,19.241-8.013,1.417-17.683-10.087-13.691-18.041,1.537-3.063,20.624-14.235,27.4-16.668,4.7-1.69,9.99-2.834,14.346.17a6.813,6.813,0,0,1,2.939,4.035c.545,2.6-.982,5.139-2.5,7.32A34.524,34.524,0,0,1,435.384,181.99Z"/><path class="j" d="M441.645,172.2a6.5,6.5,0,0,1-1.276,2.3,8.644,8.644,0,0,1-3.533,2.516c-3.219,1.226-6.825.427-10.131-.543a107.29,107.29,0,0,1-11.533-4.114c-3.709-1.567-7.26-4-11.026-5.317-8-2.8-15.8-6.644-23.505-10.237q-1.08-.5-2.158-1.012-1.75-.823-3.491-1.668a2.31,2.31,0,0,1-.2-.363.867.867,0,0,1,.09-1.064.655.655,0,0,0,.06-.106.587.587,0,0,0,.164-.217c.46-.006.835-.008.931,0,.84.084,2.039.832,2.822.429a12.36,12.36,0,0,1-3.315-1.55,1.152,1.152,0,0,1-.474-.568,1.2,1.2,0,0,1,.162-.8,16.112,16.112,0,0,1,1.89-3.046,4.561,4.561,0,0,1,2.244-1.744,5.072,5.072,0,0,1,2.45.148c4.053.952,7.9,2.5,11.929,3.527q6.236,1.595,12.4,3.465,11.486,3.49,22.518,7.9a37.255,37.255,0,0,1,8.282,4.183c2.169,1.584,4.909,3.607,4.895,6.613A4.537,4.537,0,0,1,441.645,172.2Z"/><path class="m" d="M391.183,223.862c.98,7.031,2.773,13.9,4.172,20.856,1.281,6.366,3.172,13.664,3.149,20.141-.007,1.912-.318,4.019-1.764,5.271-1.38,1.2-3.377,1.261-5.2,1.261-11.14,0-22.641-.281-32.8-4.846a11.577,11.577,0,0,0,1.253-13.662c-3.412-5.385-8.39-10.266-12.657-14.982-6-6.633-12.527-12.855-17.6-20.219-1.366-1.981-2.676-4.288-2.252-6.657a9.034,9.034,0,0,1,2.833-4.514,48.245,48.245,0,0,1,13.966-9.947,64.435,64.435,0,0,1,11.307-3.622c3.4-.8,6.945-3.329,10.437-3.47a111.535,111.535,0,0,1,15.011.559,7.567,7.567,0,0,1,3.92,1.181c1.768,1.322,2.206,3.744,2.511,5.93Q389.321,210.5,391.183,223.862Z"/><path class="l" d="M353.247,185.826A12.981,12.981,0,0,0,358,190.141c1.239.666,2.972.11,2.873,1.8a8.278,8.278,0,0,1-1.415,3.927,15.433,15.433,0,0,1-3.869,3.87,14.561,14.561,0,0,1-7.628,3.159,8.275,8.275,0,0,1-4.687-1.132,6.386,6.386,0,0,1-1.792-1.57c-.661-.873-.374-1.042.472-1.666a3.13,3.13,0,0,1,.881-.511.742.742,0,0,1-.081-.27c-.169-1.386-1.1-2.556-1.745-3.8a5.118,5.118,0,0,1,.524-6.672,39.554,39.554,0,0,1,2.692-2.937,22.753,22.753,0,0,1,2.556-2.332c.684-.51.88-3.64,1.793-3.563C349.411,178.523,350.878,182.8,353.247,185.826Z"/><path class="j" d="M348.28,191.269a7.468,7.468,0,0,1-5.879,5.239c-.374-.88-.953-1.7-1.4-2.552a5.118,5.118,0,0,1,.524-6.672,39.554,39.554,0,0,1,2.692-2.937,25.547,25.547,0,0,1,2.23-2.072A10.415,10.415,0,0,1,348.28,191.269Z"/><path class="n" d="M351.555,173.607a3.712,3.712,0,0,1,1.985-.38,3.5,3.5,0,0,1,2.825,2.165,3.833,3.833,0,0,1-.451,3.562,4.238,4.238,0,0,1-3.176,1.735,2.82,2.82,0,0,1-1.22-.164c-1.193-.476-1.918-2.156-2.079-3.365A3.761,3.761,0,0,1,351.555,173.607Z"/><path class="j" d="M349.574,177.825a4.74,4.74,0,0,1,.91-1.416,2.726,2.726,0,0,1,2.195-1.045,1.723,1.723,0,0,1,1.531,2.134c-.535,1.818-2.476,2.226-4.078,1.69A5.742,5.742,0,0,1,349.574,177.825Z"/><path class="o" d="M352.171,175.45l-.014-.013,0,0a.133.133,0,0,1-.031-.1c.045-.337.739-.352.988-.351a1.553,1.553,0,0,1,1.334.917c.032.066-.066.113-.109.06a1.965,1.965,0,0,0-1.168-.664c-.135-.005-.693.011-.785.137a.146.146,0,0,1-.2.029v0Z"/><path class="o" d="M352.433,177.766a1.582,1.582,0,0,1,0-1.232c.037-.087.166-.027.148.059a2.014,2.014,0,0,0,.14,1.064,1.471,1.471,0,0,0,.417.675,1.017,1.017,0,0,1,.262.211.123.123,0,0,1-.1.187C352.8,178.738,352.584,178.155,352.433,177.766Z"/><path class="n" d="M331.328,180.157a3.193,3.193,0,0,0-1.765.607,3.635,3.635,0,0,0-1.332,3.248,3.843,3.843,0,0,0,1.917,2.921,3.6,3.6,0,0,0,3.317.018,2.639,2.639,0,0,0,.912-.724c.753-.986.6-2.808.206-3.949A3.424,3.424,0,0,0,331.328,180.157Z"/><path class="j" d="M334.764,182.928a4.282,4.282,0,0,0-1.351-.815,2.315,2.315,0,0,0-2.224.123,1.823,1.823,0,0,0-.3,2.606c1.225,1.346,2.967.783,4.024-.45A6.236,6.236,0,0,0,334.764,182.928Z"/><path class="o" d="M331.636,182.071l.005-.018v0a.141.141,0,0,0-.021-.107c-.183-.275-.749.041-.949.16a1.6,1.6,0,0,0-.675,1.441.057.057,0,0,0,.114,0,2,2,0,0,1,.651-1.14c.107-.068.564-.319.693-.251a.131.131,0,0,0,.176-.071v0Z"/><path class="o" d="M332.435,184.233a1.631,1.631,0,0,0-.54-1.082c-.068-.059-.146.056-.094.122a2.126,2.126,0,0,1,.351,1,1.581,1.581,0,0,1-.042.792,1.062,1.062,0,0,0-.118.31.114.114,0,0,0,.163.117C332.567,185.261,332.483,184.647,332.435,184.233Z"/><path class="p" d="M405.534,196.762c.137.055.233.225.318.339a.088.088,0,0,1-.138.109,1.449,1.449,0,0,1-.279-.368C405.412,196.779,405.483,196.742,405.534,196.762Z"/><path class="l" d="M347.68,165.979c2.024,1.227,2.985,3.625,3.521,5.925a21.8,21.8,0,0,1,.039,10.452,15.343,15.343,0,0,1-5.79,8.65c-2.357,1.662-5.626,2.487-8.1,1.058a8.93,8.93,0,0,1-3.222-3.9,30.181,30.181,0,0,1-3.189-11.7,13.511,13.511,0,0,1,.144-3.456,9.761,9.761,0,0,1,3.9-5.909C338.242,164.754,344.115,163.817,347.68,165.979Z"/><path class="o" d="M339.412,182.237a5.838,5.838,0,0,1-.41-1.021c-.169-.612-.44-1.19-.616-1.8-.193-.67-.466-1.338-.7-2-.038-.11.115-.209.185-.1a9.553,9.553,0,0,1,.652,1.551,14.343,14.343,0,0,1,.5,1.361c.162.509.372,1.016.579,1.507.11.26.224.649.513.764a1.447,1.447,0,0,0,1.072-.192c.245-.122.465.248.22.363a1.73,1.73,0,0,1-1.551.138A1.167,1.167,0,0,1,339.412,182.237Z"/><path class="o" d="M340.516,184.861c.235-.047.394.11.6.179a1.175,1.175,0,0,0,1.132-.1,1.547,1.547,0,0,0,.628-.931,4.191,4.191,0,0,0,.139-1.171.112.112,0,0,1,.2-.074,1.857,1.857,0,0,1,.069,1.253,1.951,1.951,0,0,1-.625,1.13,1.712,1.712,0,0,1-1.019.437,1.355,1.355,0,0,1-.5-.086,3.268,3.268,0,0,1-.312-.108c-.077-.036-.181-.152-.272-.137C340.309,185.3,340.27,184.91,340.516,184.861Z"/><path class="q" d="M348.155,167.725a.5.5,0,0,1,.334-.219,3.625,3.625,0,0,1,2.359.17,2.43,2.43,0,0,1,1.569,1.3.514.514,0,0,1,.049.2c-.006.188-.191.33-.382.4a2.194,2.194,0,0,1-1.465-.123,8.3,8.3,0,0,1-1.661-.714,1.485,1.485,0,0,1-.809-.8A.335.335,0,0,1,348.155,167.725Z"/><path class="q" d="M340.839,175.367a.422.422,0,0,1,.129-.322,2.8,2.8,0,0,1,1.749-.94,2.068,2.068,0,0,1,1.74.3.5.5,0,0,1,.134.137.472.472,0,0,1-.072.487,1.687,1.687,0,0,1-1.094.57,6.554,6.554,0,0,1-1.52.2,1.29,1.29,0,0,1-.962-.254A.338.338,0,0,1,340.839,175.367Z"/><path class="q" d="M331.98,177.139a.422.422,0,0,1,.129-.322,2.8,2.8,0,0,1,1.749-.94,2.068,2.068,0,0,1,1.74.3.5.5,0,0,1,.134.137.472.472,0,0,1-.072.487,1.691,1.691,0,0,1-1.094.57,6.609,6.609,0,0,1-1.52.2,1.29,1.29,0,0,1-.962-.254A.338.338,0,0,1,331.98,177.139Z"/><path class="r" d="M341.892,178.194a.908.908,0,1,0,.378-1.228A.909.909,0,0,0,341.892,178.194Z"/><path class="r" d="M334.782,179.894a.769.769,0,1,0,.243-1.157A.841.841,0,0,0,334.782,179.894Z"/><path class="j" d="M345.476,179.01a1.247,1.247,0,0,1,1.115.851,1.092,1.092,0,0,1-.078.585,3.083,3.083,0,0,1-2.344,1.6c-1.027.229-3.368-.373-2.336-1.868C342.43,179.317,344.522,178.859,345.476,179.01Z"/><path class="j" d="M337.837,182.364a1.25,1.25,0,0,1,1.115.852,1.082,1.082,0,0,1-.078.585,3.083,3.083,0,0,1-2.344,1.605c-1.027.229-3.368-.373-2.336-1.868C334.791,182.672,336.883,182.214,337.837,182.364Z"/><path class="p" d="M414.013,183.49a.894.894,0,0,1,.367.248.084.084,0,0,1-.106.131,1.4,1.4,0,0,1-.337-.284C413.9,183.531,413.961,183.482,414.013,183.49Z"/><path class="s" d="M349.745,177.614a2.185,2.185,0,0,0,1.47-.3,34.292,34.292,0,0,0,1.106-8.748,9.318,9.318,0,0,0-.422-2.544c-1.361-4.039-9.859-6.83-10.272-.832-.205,2.98,3,3.571,4.895,4.948C348.92,171.873,349.41,174.856,349.745,177.614Z"/><path class="s" d="M330.154,176.652a13.406,13.406,0,0,1-.1-4.887,3.107,3.107,0,0,1,2.071-.528.525.525,0,0,1,.311.113.534.534,0,0,1,.125.349,7.947,7.947,0,0,1-.3,2.367,35.857,35.857,0,0,0-.781,6,3.68,3.68,0,0,1-.379-.26C330.871,178.754,330.43,177.743,330.154,176.652Z"/><path class="t" d="M339.686,429.108c-.076.646-.123,1.409-.206,1.7a16.156,16.156,0,0,1-1.158,2.9c-1.719,3.35-4.03,5.74-7.7,6.737q-2.982.812-6,1.474a3.559,3.559,0,0,0-1.222.427,1.189,1.189,0,0,0-.583,1.089,1.383,1.383,0,0,0,.588.86c1.444,1.107,14.156.54,14.156.54,6.3-.672,9.771-1.232,9.771-1.232l2.575-.112h0c0,.019,0,.009,0,0l-.05,1.458.1,0h2.747a153.221,153.221,0,0,0,.031-15.837Z"/><path class="t" d="M385.523,425.426c-.319,2.145-.057,4.21-.662,6.364a23.064,23.064,0,0,1-3.139,6.617c-2.519,3.733-5.859,6.825-9.167,9.881a12,12,0,0,0,6.141-.306,49.419,49.419,0,0,0,13.734-5.75,44.919,44.919,0,0,1,4.173-2.751,7.1,7.1,0,0,1,.087,1.318l.106-.008,2.768-.159a154.554,154.554,0,0,0-.884-15.96c-.011-.107-11.925.719-13.155.744Z"/><path class="s" d="M349.35,165.235a9.268,9.268,0,0,1-4.759,7.136,5.248,5.248,0,0,1-2.747.718,1.647,1.647,0,0,1-.812-.227c-.732-.476-.615-1.57-.372-2.409a12.154,12.154,0,0,1-5.505,4.555,2.506,2.506,0,0,1-1.912.186,1.832,1.832,0,0,1-.985-1.433,4.761,4.761,0,0,1,.166-1.8,11.735,11.735,0,0,1-1.653,2.843,3.386,3.386,0,0,1-2.868,1.606,2.546,2.546,0,0,1-1.807-1.4,6.229,6.229,0,0,1-.575-2.289c-.291-2.845.069-6.034,2.16-7.984a2.058,2.058,0,0,1,1.639-.683c-1.652-.339-2.5-2.414-1.984-4.018a5.77,5.77,0,0,1,3.591-3.32,8.759,8.759,0,0,1,5.51-.335,6.746,6.746,0,0,1,4.221,3.45c1.072-1.666,3.352-2.193,5.294-1.8a8.359,8.359,0,0,1,5.549,4.2,9.9,9.9,0,0,1,.835,6.978,2.113,2.113,0,0,1-.53,1.094,1.611,1.611,0,0,1-2.2-.341,4.683,4.683,0,0,1-.837-2.311"/><path class="l" d="M295.618,219.8c-2.935-2.47-6.691-5.906-10.687-4.446-1.969.719-4.192,3.044-5.939,4.268l-6.531,4.573a3.464,3.464,0,0,0-1.553,1.738c.008-.029,2.736-.392,3.01-.466a26.818,26.818,0,0,0,2.99-1.169c-2.7,1.954-5.458,3.817-8.13,5.811-.336.252-.7.729-.4,1.029.188.19.5.127.758.048a38.219,38.219,0,0,0,4.242-1.6,1.486,1.486,0,0,1,.459-.148,1.382,1.382,0,0,1,.831.295l.072.046a6.023,6.023,0,0,0,5.6.815c2.04-.69,4.041-1.585,6.026-2.452q3.3,4.2,6.764,8.278,7.576,8.925,15.866,17.211c2.635,2.634,5.381,5.258,8.719,6.914,5.2,2.58,14.743,2.2,12.237-6.069a17.469,17.469,0,0,0-3.677-5.9,157.021,157.021,0,0,0-17.715-17.648l-3.954-3.428c-2.679-2.323-5.307-4.736-8.078-6.947C296.234,220.313,295.93,220.06,295.618,219.8Z"/><path class="t" d="M387.763,367.587a5.1,5.1,0,0,1-4.19-2.032,9.312,9.312,0,0,1-1.713-5.342l.643-.038a8.7,8.7,0,0,0,1.578,4.983,4.283,4.283,0,0,0,4.5,1.62c2.06-.711,2.89-3.214,3.43-5.569l.628.144c-.58,2.527-1.49,5.221-3.847,6.034A3.838,3.838,0,0,1,387.763,367.587Z"/><path class="t" d="M333.4,365.777a7.591,7.591,0,0,0,7.212-5.7l-.627-.143a6.906,6.906,0,0,1-7.064,5.179,3.324,3.324,0,0,1-1.238-.3c-1.053-.526-1.535-1.8-1.938-3.055l-.614.2c.445,1.388.987,2.8,2.265,3.434a3.933,3.933,0,0,0,1.474.367C333.05,365.77,333.227,365.777,333.4,365.777Z"/><path class="u" d="M341.856,240.855,316.084,235.7v-8.537l26.577,6.926Z"/><rect class="v" width="25.127" height="6.121" transform="translate(332.675 415.458)"/><path class="v" d="M387.278,415.458H381.8v6.121h5.476C387.223,421.244,387.37,417.173,387.278,415.458Z"/><path class="t" d="M346.618,203.15a7.276,7.276,0,0,1-3.133-.623,4.415,4.415,0,0,1-2.616-3.419l.321-.029a4.091,4.091,0,0,0,2.431,3.157,7.884,7.884,0,0,0,4.168.532,15.669,15.669,0,0,0,13.314-11.51l.313.077a16,16,0,0,1-13.6,11.753Q347.191,203.151,346.618,203.15Z"/><path class="e" d="M478.607,425.671l-83.114,39.72V109.741l83.114,25.665Z"/><rect class="g" width="8.215" height="355.65" transform="translate(388.278 109.741)"/><path class="w" d="M475.708,233.123,414.178,256l-8.7-7.087-.966-37.208,62.819-10.309,5.477.483Z"/><path class="x" d="M471.842,229.258l-63.624,20.456V211.7l63.624-9.826Z"/><path class="y" d="M405.48,248.908l2.738.805V211.7l-2.738-.805Z"/><path class="z" d="M467.332,201.392l-61.852,9.5,2.738.805,63.624-9.826Z"/><path class="t" d="M407.7,210.89l-.565-.312c5.3-9.614,11.162-19.432,16.831-28.927,6.409-10.735,13.036-21.835,18.926-32.761l.3-.565.271.582c4.053,8.711,8.7,17.787,13.2,26.565s9.155,17.867,13.214,26.589l-.584.272c-4.054-8.711-8.705-17.789-13.2-26.567-4.4-8.588-8.948-17.463-12.941-26.006-5.82,10.756-12.333,21.665-18.636,32.221C418.848,191.471,412.989,201.285,407.7,210.89Z"/><path class="t" d="M423.479,217.659l-.639-.077L420.622,235.9l-2.789-7.416,2.018-8.177-.625-.155-1.794,7.266-2.514-6.682-.6.227,2.844,7.56-2.24,9.075a126.671,126.671,0,0,1-3.119-18.37l-.642.061a127.372,127.372,0,0,0,3.452,19.72l.319,1.236,2.631-10.657,3.386,9Z"/><path class="t" d="M431.8,235.071l-5.711,1.8c-.036-4.555.033-9.148.192-13.723l4.529-1.292-.177-.619-4.331,1.235q.1-2.62.233-5.228c2.093-.7,3.19-1,5.279-1.528l-.157-.625c-2.137.539-3.245.848-5.416,1.571a.328.328,0,0,0-.22.074l-.138.046v.232a.407.407,0,0,0,.013.1c-.358,6.7-.509,13.491-.448,20.2l0,.435,6.542-2.064Z"/><path class="t" d="M463.14,228.589l0-.457c-.05-6.311.073-12.706.366-19.01a.394.394,0,0,1-.011-.093v-.222l.126-.048a.333.333,0,0,1,.208-.08c1.765-.677,2.67-.969,4.413-1.476l.18.619c-1.7.493-2.589.78-4.277,1.426-.282,6.109-.4,12.3-.364,18.423l4.572-1.663.22.606Z"/><rect class="t" width="4.157" height="0.644" transform="translate(463.451 214.287) rotate(-18.215)"/><rect class="t" width="0.644" height="20.211" transform="translate(433.292 214.868)"/><rect class="t" width="5.208" height="0.644" transform="translate(433.436 234.691) rotate(-15.346)"/><path class="t" d="M450.071,231.53a1.809,1.809,0,0,1-1.505-.961,4.386,4.386,0,0,1-.464-1.648h0c-.7-5.013-1.229-10.313-.406-15.114.328-1.911,1.267-2.867,2.87-2.924a2.435,2.435,0,0,1,1.878.656,4.431,4.431,0,0,1,.913,3.33l-.213,7.272a20.974,20.974,0,0,1-1.234,7.782c-.438,1-1.044,1.56-1.753,1.6Zm.627-20.005-.109,0c-1.286.045-1.982.782-2.258,2.389-.808,4.714-.281,9.955.409,14.916h0a3.891,3.891,0,0,0,.384,1.415,1.169,1.169,0,0,0,.992.638c.572-.036.97-.683,1.2-1.219a20.468,20.468,0,0,0,1.181-7.543l.213-7.273A3.862,3.862,0,0,0,451.99,212,1.742,1.742,0,0,0,450.7,211.525Z"/><path class="t" d="M454.2,230.046l-.194-.615a.154.154,0,0,0,.063-.029.7.7,0,0,0,.007-.214,1.2,1.2,0,0,1,.049-.483c.032-1.2.071-2.384.11-3.569.157-4.8.3-9.332.049-14.062v-.018c0-.289.259-.483.644-.483h.215l.082.2c1.589,3.812,2.622,6.477,3.071,7.921l-.615.191c-.411-1.321-1.323-3.692-2.714-7.055.2,4.495.054,8.982-.088,13.329q-.06,1.806-.112,3.626l0,.072-.032.063a.671.671,0,0,0-.013.241A.766.766,0,0,1,454.2,230.046Z"/><path class="t" d="M460.831,228.724l-.2-17.222-2.339,7.383-.615-.195,2.828-8.922.013-.025a.392.392,0,0,1,.74.177l.213,18.8Z"/><path class="t" d="M442.454,233.31a5.167,5.167,0,0,1-.709-.051,3.319,3.319,0,0,1-2.482-2.084,8.753,8.753,0,0,1-.508-3.057l-.416-9.7a35.207,35.207,0,0,1,0-4.57,1.741,1.741,0,0,1,.3-.959,1.775,1.775,0,0,1,.954-.552c1.144-.323,3.217-.766,4.234-.1,1.053.691,1.284,3.129,1.107,4.188l-.635-.106c.154-.926-.088-3.059-.826-3.544-.578-.38-1.963-.312-3.7.179a.839.839,0,0,0-.787.948,34.6,34.6,0,0,0,0,4.485l.416,9.7a8.131,8.131,0,0,0,.457,2.832,2.71,2.71,0,0,0,1.978,1.7c.728.1,2.475.155,2.96-1.52a13.709,13.709,0,0,0,.276-3.266c.008-.737.017-1.432.081-2.011l.64.071c-.061.548-.069,1.228-.077,1.947a14.073,14.073,0,0,1-.3,3.438A2.831,2.831,0,0,1,442.454,233.31Z"/><g class="aa" transform="translate(-9 -1)"><rect class="e" width="32.024" height="12.755" rx="4.603" transform="translate(555.804 247.928)"/><rect class="e" width="32.024" height="12.756" rx="4.603" transform="translate(535.857 263.668)"/><rect class="e" width="32.024" height="12.756" rx="4.603" transform="translate(572.088 263.668)"/><rect class="e" width="32.024" height="12.756" rx="4.603" transform="translate(551.326 279.409)"/><rect class="e" width="32.025" height="12.755" rx="4.603" transform="translate(586.472 279.681)"/><rect class="e" width="32.024" height="12.755" rx="4.603" transform="translate(516.859 279.681)"/><rect class="e" width="32.025" height="12.755" rx="4.603" transform="translate(130.642 329.774)"/><rect class="e" width="32.025" height="12.756" rx="4.603" transform="translate(114.695 313.344)"/><rect class="e" width="32.025" height="12.756" rx="4.603" transform="translate(138.373 296.915)"/><rect class="e" width="32.024" height="12.755" rx="4.603" transform="translate(521.337 247.928)"/><rect class="e" width="32.024" height="12.755" rx="4.603" transform="translate(538.028 233.272)"/><rect class="e" width="32.024" height="12.756" rx="4.603" transform="translate(284.226 164.559) rotate(180)"/><rect class="e" width="32.024" height="12.756" rx="4.603" transform="translate(304.174 148.818) rotate(180)"/><rect class="e" width="32.025" height="12.756" rx="4.603" transform="translate(267.943 148.818) rotate(180)"/><rect class="e" width="32.025" height="12.756" rx="4.603" transform="translate(288.704 133.077) rotate(-180)"/><rect class="e" width="32.024" height="12.755" rx="4.603" transform="translate(253.559 132.805) rotate(180)"/><rect class="e" width="32.024" height="12.755" rx="4.603" transform="translate(323.171 132.805) rotate(180)"/><rect class="e" width="32.025" height="12.755" rx="4.603" transform="translate(275.333 116.859) rotate(180)"/><rect class="e" width="32.024" height="12.756" rx="4.603" transform="translate(318.693 164.559) rotate(180)"/><rect class="e" width="32.025" height="12.755" rx="4.603" transform="translate(302.003 179.214) rotate(180)"/></g></g></g></svg>