<svg xmlns="http://www.w3.org/2000/svg" xmlns:xlink="http://www.w3.org/1999/xlink" width="870" height="580" viewBox="0 0 870 580"><defs><style>.a{fill:none;}.b{opacity:0.35;}.c{fill:#7d97f4;}.d{opacity:0.68;}.e{opacity:0.91;}.f{fill:url(#a);}.g{fill:url(#b);}.h{fill:#bdd0fb;}.i{fill:url(#c);}.j{fill:url(#e);}.k{fill:#fff;}.l{fill:#f2f5f9;}.m,.t{fill:#cb2727;}.n{opacity:0.82;}.o{opacity:0.85;}.p{opacity:0.83;}.q{opacity:0.86;}.r{fill:#fac13d;}.r,.s,.t{opacity:0.59;}.s{fill:#2bc70e;}.u{fill:url(#f);}.v{fill:url(#g);}.w{fill:url(#h);}.x{fill:url(#i);}.y{fill:url(#j);}.z{fill:url(#k);}.aa{fill:url(#n);}.ab{fill:url(#o);}.ac{fill:#feb3b1;}.ad{fill:url(#q);}.ae{fill:url(#r);}.af{fill:url(#s);}.ag{fill:url(#t);}.ah{fill:url(#u);}</style><linearGradient id="a" x1="0.222" y1="2.387" x2="0.516" y2="2.983" gradientUnits="objectBoundingBox"><stop offset="0" stop-color="#00093f"/><stop offset="1" stop-color="#005aae"/></linearGradient><linearGradient id="b" x1="0.401" y1="1" x2="0.509" y2="-3.128" xlink:href="#a"/><linearGradient id="c" x1="0.651" y1="-0.24" x2="0.909" y2="3.687" xlink:href="#a"/><linearGradient id="e" x1="0.029" y1="1.037" x2="0.866" y2="0.068" gradientUnits="objectBoundingBox"><stop offset="0" stop-color="red"/><stop offset="1" stop-color="#cb2727"/></linearGradient><linearGradient id="f" x1="0.498" y1="8.591" x2="0.509" y2="-36.175" gradientUnits="objectBoundingBox"><stop offset="0" stop-color="#fff"/><stop offset="1" stop-color="#d6d6d6"/></linearGradient><linearGradient id="g" x1="0.336" y1="-9.828" x2="0.417" y2="-4.568" xlink:href="#f"/><linearGradient id="h" y1="0.5" x2="1" y2="0.5" gradientUnits="objectBoundingBox"><stop offset="0" stop-color="#ff928e"/><stop offset="1" stop-color="#feb3b1"/></linearGradient><linearGradient id="i" x1="0.497" y1="1.747" x2="0.511" y2="-3.367" xlink:href="#f"/><linearGradient id="j" x1="0.326" y1="-3.548" x2="0.418" y2="-1.477" xlink:href="#f"/><linearGradient id="k" x1="0.872" y1="-0.77" x2="0.73" y2="-0.286" gradientUnits="objectBoundingBox"><stop offset="0" stop-color="#fff"/><stop offset="1" stop-color="#00093f"/></linearGradient><linearGradient id="n" x1="0.824" y1="-2.622" x2="0.68" y2="-1.202" xlink:href="#h"/><linearGradient id="o" y1="0.5" x2="1" y2="0.5" gradientUnits="objectBoundingBox"><stop offset="0" stop-color="#f2f5f9"/><stop offset="1" stop-color="#bdd0fb"/></linearGradient><linearGradient id="q" x1="-3.117" y1="11.664" x2="-2.095" y2="11.664" gradientUnits="objectBoundingBox"><stop offset="0" stop-color="#09005d"/><stop offset="1" stop-color="#00093f"/></linearGradient><linearGradient id="r" x1="-17.784" y1="52.479" x2="-14.493" y2="50.123" xlink:href="#h"/><linearGradient id="s" x1="47.57" y1="-893.691" x2="46.34" y2="-879.359" gradientUnits="objectBoundingBox"><stop offset="0" stop-color="#0a4291"/><stop offset="1" stop-color="#1b1b63"/></linearGradient><linearGradient id="t" x1="71.653" y1="-78.027" x2="69.028" y2="-76.728" xlink:href="#s"/><linearGradient id="u" x1="0.608" y1="-17.383" x2="0.559" y2="-9.14" gradientUnits="objectBoundingBox"><stop offset="0" stop-color="#f2f5f9"/><stop offset="1" stop-color="#fff"/></linearGradient></defs><g transform="translate(-82 -297)"><rect class="a" width="870" height="580" transform="translate(82 297)"/><g class="b" transform="translate(821.261 709.032) rotate(19)"><path class="c" d="M59.418,53.386a1.44,1.44,0,0,1-1.277-2.1c.652-1.261,1.217-2.465,1.728-3.677a1.44,1.44,0,0,1,2.658,1.106c-.534,1.287-1.13,2.561-1.821,3.9a1.44,1.44,0,0,1-1.287.777Z" transform="translate(21.099 19.676)"/><path class="c" d="M48.875,102.776a1.454,1.454,0,0,1-.649-.154C24.284,90.539,9.99,70.27,9.99,48.4V19.276a1.441,1.441,0,0,1,1.587-1.432c14.237,1.466,26.416-3.694,36.2-15.331A1.44,1.44,0,0,1,48.861,2a1.419,1.419,0,0,1,1.1.492c8.59,9.826,20.835,14.987,36.394,15.344a1.44,1.44,0,0,1,1.407,1.44V42.987a1.44,1.44,0,0,1-2.879,0V20.672C69.789,20.046,57.7,14.986,48.9,5.612,39.025,16.726,26.916,21.84,12.869,20.847V48.4c0,20.564,13.445,39.7,36.006,51.319A74.143,74.143,0,0,0,73.889,79.371a1.44,1.44,0,1,1,2.288,1.749,77.31,77.31,0,0,1-26.652,21.5,1.454,1.454,0,0,1-.649.154Z" transform="translate(0 0)"/><path class="c" d="M62.763,44.231a1.365,1.365,0,0,1-.288-.029,1.44,1.44,0,0,1-1.13-1.693c.288-1.4.507-2.826.674-4.247a1.44,1.44,0,1,1,2.859.335c-.176,1.5-.415,3-.71,4.476a1.44,1.44,0,0,1-1.405,1.157Z" transform="translate(22.566 15.384)"/><path class="c" d="M46.379,89.835a1.431,1.431,0,0,1-.705-.186c-18.79-10.561-30.007-27.233-30.007-44.6V24.02a1.44,1.44,0,0,1,1.375-1.44,43.97,43.97,0,0,0,28.533-12.2,1.44,1.44,0,0,1,1.908-.045,52.146,52.146,0,0,0,28.334,11.6,1.44,1.44,0,0,1,1.277,1.43V45.05c0,17.365-11.218,34.038-30.008,44.6a1.431,1.431,0,0,1-.705.186ZM18.546,25.377V45.052c0,16.094,10.389,31.626,27.833,41.682C63.825,76.675,74.213,61.14,74.213,45.046V24.637A54.875,54.875,0,0,1,46.6,13.342,46.6,46.6,0,0,1,18.546,25.377Z" transform="translate(2.496 3.517)"/><path class="c" d="M35.546,53.109a1.439,1.439,0,0,1-1.018-.422l-8.107-8.107a1.44,1.44,0,1,1,2.036-2.036l7.089,7.092L55.215,29.964A1.44,1.44,0,0,1,57.252,32L36.564,52.687a1.44,1.44,0,0,1-1.018.422Z" transform="translate(7.039 12.109)"/></g><g class="d" transform="translate(763.274 764.203) rotate(-8)"><path class="c" d="M58.377,48.585A.4.4,0,0,1,58.024,48c.18-.348.336-.681.477-1.016a.4.4,0,0,1,.734.305c-.148.356-.312.707-.5,1.076A.4.4,0,0,1,58.377,48.585Z" transform="translate(-28.906 -26.956)"/><path class="c" d="M20.731,29.837a.4.4,0,0,1-.179-.043C13.939,26.457,9.99,20.858,9.99,14.817V6.772a.4.4,0,0,1,.438-.4,11.019,11.019,0,0,0,10-4.235.4.4,0,0,1,.3-.142.392.392,0,0,1,.3.136C23.4,4.85,26.786,6.276,31.084,6.374a.4.4,0,0,1,.389.4v6.55a.4.4,0,0,1-.8,0V7.158A13.859,13.859,0,0,1,20.738,3a11.688,11.688,0,0,1-9.953,4.208v7.611c0,5.68,3.714,10.967,9.946,14.176a20.48,20.48,0,0,0,6.91-5.621.4.4,0,1,1,.632.483,21.355,21.355,0,0,1-7.362,5.939.4.4,0,0,1-.179.043Z" transform="translate(0 0)"/><path class="c" d="M61.716,38.991a.377.377,0,0,1-.08-.008.4.4,0,0,1-.312-.468c.08-.386.14-.781.186-1.173a.4.4,0,1,1,.79.093c-.049.414-.115.83-.2,1.236A.4.4,0,0,1,61.716,38.991Z" transform="translate(-30.915 -21.076)"/><path class="c" d="M24.151,32.052A.4.4,0,0,1,23.956,32c-5.19-2.917-8.289-7.522-8.289-12.319v-5.81a.4.4,0,0,1,.38-.4,12.146,12.146,0,0,0,7.882-3.369.4.4,0,0,1,.527-.012,14.4,14.4,0,0,0,7.827,3.2.4.4,0,0,1,.353.395v5.99c0,4.8-3.1,9.4-8.289,12.32a.4.4,0,0,1-.195.051ZM16.462,14.247v5.435c0,4.446,2.87,8.736,7.688,11.514,4.819-2.779,7.689-7.07,7.689-11.515V14.043a15.158,15.158,0,0,1-7.628-3.12A12.873,12.873,0,0,1,16.462,14.247Z" transform="translate(-3.419 -4.818)"/><path class="c" d="M28.637,36.052a.4.4,0,0,1-.281-.116L26.117,33.7a.4.4,0,1,1,.562-.562l1.958,1.959,5.433-5.434a.4.4,0,0,1,.563.562l-5.715,5.715a.4.4,0,0,1-.281.117Z" transform="translate(-9.643 -16.589)"/></g><g class="d" transform="translate(876.274 706.203) rotate(-8)"><path class="c" d="M58.377,48.585A.4.4,0,0,1,58.024,48c.18-.348.336-.681.477-1.016a.4.4,0,0,1,.734.305c-.148.356-.312.707-.5,1.076A.4.4,0,0,1,58.377,48.585Z" transform="translate(-28.906 -26.956)"/><path class="c" d="M20.731,29.837a.4.4,0,0,1-.179-.043C13.939,26.457,9.99,20.858,9.99,14.817V6.772a.4.4,0,0,1,.438-.4,11.019,11.019,0,0,0,10-4.235.4.4,0,0,1,.3-.142.392.392,0,0,1,.3.136C23.4,4.85,26.786,6.276,31.084,6.374a.4.4,0,0,1,.389.4v6.55a.4.4,0,0,1-.8,0V7.158A13.859,13.859,0,0,1,20.738,3a11.688,11.688,0,0,1-9.953,4.208v7.611c0,5.68,3.714,10.967,9.946,14.176a20.48,20.48,0,0,0,6.91-5.621.4.4,0,1,1,.632.483,21.355,21.355,0,0,1-7.362,5.939.4.4,0,0,1-.179.043Z" transform="translate(0 0)"/><path class="c" d="M61.716,38.991a.377.377,0,0,1-.08-.008.4.4,0,0,1-.312-.468c.08-.386.14-.781.186-1.173a.4.4,0,1,1,.79.093c-.049.414-.115.83-.2,1.236A.4.4,0,0,1,61.716,38.991Z" transform="translate(-30.915 -21.076)"/><path class="c" d="M24.151,32.052A.4.4,0,0,1,23.956,32c-5.19-2.917-8.289-7.522-8.289-12.319v-5.81a.4.4,0,0,1,.38-.4,12.146,12.146,0,0,0,7.882-3.369.4.4,0,0,1,.527-.012,14.4,14.4,0,0,0,7.827,3.2.4.4,0,0,1,.353.395v5.99c0,4.8-3.1,9.4-8.289,12.32a.4.4,0,0,1-.195.051ZM16.462,14.247v5.435c0,4.446,2.87,8.736,7.688,11.514,4.819-2.779,7.689-7.07,7.689-11.515V14.043a15.158,15.158,0,0,1-7.628-3.12A12.873,12.873,0,0,1,16.462,14.247Z" transform="translate(-3.419 -4.818)"/><path class="c" d="M28.637,36.052a.4.4,0,0,1-.281-.116L26.117,33.7a.4.4,0,1,1,.562-.562l1.958,1.959,5.433-5.434a.4.4,0,0,1,.563.562l-5.715,5.715a.4.4,0,0,1-.281.117Z" transform="translate(-9.643 -16.589)"/></g><g transform="translate(-7.023 26)"><g transform="translate(-0.784 287.646)"><g transform="translate(184.469 96.336)"><g transform="translate(0)"><g class="e" transform="translate(37.831 0)"><g transform="translate(0 0)"><g transform="translate(209.732 295.215)"><path class="f" d="M1129.843,1138.419,1118.7,1238.36h129.285l-16.839-99.941Z" transform="translate(-1078.452 -1138.419)"/><path class="g" d="M1197.618,1438.32H1008.4c-5.14,0-9-3.659-8.007-7.59l2.428-9.6c.73-2.887,3.907-5.008,7.68-5.125l182.413-5.692c3.942-.123,7.432,1.97,8.291,4.971l4.377,15.294C1206.72,1434.548,1202.841,1438.32,1197.618,1438.32Z" transform="translate(-1000.237 -1317.932)"/><path class="h" d="M1322.763,1432.057a.673.673,0,0,1-.009-1.346l7.817-.115a.69.69,0,0,1,.683.663.673.673,0,0,1-.663.683l-7.817.115Z" transform="translate(-1212.74 -1331.328)"/><path class="h" d="M1020.008,1447.039a.672.672,0,0,1-.665-.779l1.115-6.984a7.847,7.847,0,0,1,7.647-6.62l82.907-1.212a.691.691,0,0,1,.683.663.673.673,0,0,1-.663.683L1028.124,1434a6.5,6.5,0,0,0-6.338,5.486l-1.115,6.984A.672.672,0,0,1,1020.008,1447.039Z" transform="translate(-1012.846 -1331.888)"/></g><path class="i" d="M382.931,302.619l4.892,274.886a41.706,41.706,0,0,0,41.367,40.965c100.448.8,451.717.831,547.268-2.279a30.688,30.688,0,0,0,29.678-30.347c.706-63.893.967-217.507-11.378-288.6a31.581,31.581,0,0,0-30.667-26.189c-84.172-1.194-456.574-3.115-552.068.731A30.315,30.315,0,0,0,382.931,302.619Z" transform="translate(-382.927 -269.503)"/><path class="i" d="M382.931,302.619l4.892,274.886a41.706,41.706,0,0,0,41.367,40.965c100.448.8,451.717.831,547.268-2.279a30.688,30.688,0,0,0,29.678-30.347c.706-63.893.967-217.507-11.378-288.6a31.581,31.581,0,0,0-30.667-26.189c-84.172-1.194-456.574-3.115-552.068.731A30.315,30.315,0,0,0,382.931,302.619Z" transform="translate(-382.927 -269.503)"/><path class="j" d="M433.632,325.273l4.648,261.161a24.165,24.165,0,0,0,24.229,23.735l533.08-2.9a23.517,23.517,0,0,0,23.448-23.849l-3.714-258.844a17.2,17.2,0,0,0-17.085-16.957l-545.852-1.313A18.636,18.636,0,0,0,433.632,325.273Z" transform="translate(-416.403 -293.802)"/><path class="h" d="M447.62,1219.814a.673.673,0,0,1,0-1.346l584.817-.443a.673.673,0,0,1,0,1.347Z" transform="translate(-425.196 -895.763)"/></g><path class="k" d="M1052.214,736.568l-532.93,2.9V502.14h532.93Z" transform="translate(-472.957 -422.083)"/><path class="l" d="M1043.984,461.812,784.861,550.2a12.154,12.154,0,0,1-7.978-.045l-249.5-88.282a12.153,12.153,0,0,1-8.1-11.457V381.462a12.154,12.154,0,0,1,12.154-12.154H1040.06a12.153,12.153,0,0,1,12.154,12.154V450.31A12.153,12.153,0,0,1,1043.984,461.812Z" transform="translate(-472.956 -335.399)"/><circle class="k" cx="34.751" cy="34.751" r="34.751" transform="translate(262.444 85.221) rotate(-45)"/><rect class="k" width="136.678" height="9.585" rx="3.618" transform="translate(239.569 134.694)"/><rect class="k" width="60.044" height="6.632" rx="3.316" transform="translate(277.886 154.122)"/><rect class="k" width="33.89" height="4.074" rx="2.037" transform="translate(290.963 170.345)"/><g transform="translate(109.851 225.645)"><g transform="translate(0 0)"><circle class="m" cx="21.779" cy="21.779" r="21.779" transform="translate(23.683 -7.96)"/><rect class="l" width="90.925" height="6.323" rx="3.162" transform="translate(0 49.126)"/><rect class="l" width="90.925" height="6.323" rx="3.162" transform="translate(0 61.699)"/></g><g transform="translate(105.311 0.318)"><circle class="m" cx="21.779" cy="21.779" r="21.779" transform="translate(23.683 -8.277)"/><rect class="l" width="90.925" height="6.323" rx="3.162" transform="translate(0 48.808)"/><rect class="l" width="90.925" height="6.323" rx="3.162" transform="translate(0 61.381)"/></g><g transform="translate(210.622 0.318)"><circle class="m" cx="21.779" cy="21.779" r="21.779" transform="translate(23.683 -8.277)"/><rect class="l" width="90.925" height="6.323" rx="3.162" transform="translate(0 48.808)"/><rect class="l" width="90.925" height="6.323" rx="3.162" transform="translate(0 61.381)"/></g><g transform="translate(315.933 0.458)"><circle class="m" cx="21.779" cy="21.779" r="21.779" transform="translate(23.683 -8.418)"/><rect class="l" width="90.925" height="6.323" rx="3.162" transform="translate(0 48.668)"/><rect class="l" width="90.925" height="6.323" rx="3.162" transform="translate(0 61.241)"/></g></g><g class="n" transform="translate(144.712 223.331)"><path class="k" d="M819.462,986.873h0a3.472,3.472,0,0,1-3.085-1.827c-3.429-6.254-7.516-14.483-7.516-18.172a10.6,10.6,0,1,1,21.2,0c0,3.689-4.087,11.918-7.515,18.172A3.474,3.474,0,0,1,819.462,986.873Zm0-29.253a9.265,9.265,0,0,0-9.255,9.254c0,2.656,2.61,8.88,7.35,17.525a2.143,2.143,0,0,0,1.9,1.128h0a2.144,2.144,0,0,0,1.9-1.128c4.739-8.645,7.35-14.869,7.35-17.525A9.265,9.265,0,0,0,819.462,957.62Z" transform="translate(-808.861 -956.273)"/><path class="k" d="M827.719,982.184a6.353,6.353,0,1,1,6.352-6.353A6.359,6.359,0,0,1,827.719,982.184Zm0-11.359a5.006,5.006,0,1,0,5.006,5.006A5.012,5.012,0,0,0,827.719,970.825Z" transform="translate(-817.118 -964.992)"/></g><g class="o" transform="translate(351.442 228.638)"><g transform="translate(0)"><path class="k" d="M1442.9,994.082h-22.815a2.756,2.756,0,0,1-2.753-2.752V974.645a2.755,2.755,0,0,1,2.753-2.752H1442.9a2.755,2.755,0,0,1,2.752,2.752V991.33A2.756,2.756,0,0,1,1442.9,994.082Zm-22.815-20.843a1.408,1.408,0,0,0-1.406,1.406V991.33a1.408,1.408,0,0,0,1.406,1.406H1442.9a1.408,1.408,0,0,0,1.406-1.406V974.645a1.408,1.408,0,0,0-1.406-1.406Z" transform="translate(-1417.336 -971.893)"/><path class="k" d="M1432.566,984.37a.673.673,0,0,1-.389-.124l-12.785-9.066a.673.673,0,0,1,.779-1.1l12.4,8.79,12.236-8.691a.673.673,0,0,1,.78,1.1l-12.625,8.967A.671.671,0,0,1,1432.566,984.37Z" transform="translate(-1418.506 -973.256)"/><path class="k" d="M1420.107,1005.653l-.2-1.331.093.667-.561-.371c.234-.371,5.78-10.077,7.9-13.785a.673.673,0,0,1,1.17.667l-3.949,6.91C1420.445,1005.6,1420.445,1005.6,1420.107,1005.653Z" transform="translate(-1418.725 -984.173)"/><path class="k" d="M1479.32,1005.653c-.338-.055-.338-.055-4.449-7.244l-3.948-6.91a.673.673,0,1,1,1.169-.667c2.117,3.708,7.662,13.414,7.9,13.785l-.561.371Z" transform="translate(-1452.658 -984.173)"/></g></g><g class="p" transform="translate(246.601 226.038)"><path class="k" d="M1122.755,990.229c-.223,0-.445,0-.67-.015-7.657-.338-13.632-6.434-13.319-13.591a12.49,12.49,0,0,1,4.494-9.021,14.328,14.328,0,0,1,9.961-3.347c7.657.338,13.633,6.434,13.32,13.591h0a12.491,12.491,0,0,1-4.494,9.021A14.269,14.269,0,0,1,1122.755,990.229Zm-.2-24.156a12.439,12.439,0,0,0-8.1,2.925,10.677,10.677,0,0,0-3.851,7.706c-.269,6.148,4.921,11.388,11.57,11.681a12.506,12.506,0,0,0,8.693-2.912,10.677,10.677,0,0,0,3.851-7.707c.269-6.147-4.921-11.388-11.57-11.681Q1122.846,966.073,1122.552,966.073Z" transform="translate(-1108.754 -964.241)"/><g transform="translate(1.78 0.921)"><g transform="translate(8.481 0.065)"><path class="k" d="M1146.511,979.813a36.585,36.585,0,0,1-.522,6.364c-.095.525-.2,1.046-.335,1.563a15.05,15.05,0,0,1-.468,1.53,7.264,7.264,0,0,1-.7,1.442,2.875,2.875,0,0,1-.524.614,1.508,1.508,0,0,1-.343.222,1.028,1.028,0,0,1-.4.095,1.013,1.013,0,0,1-.4-.075,1.41,1.41,0,0,1-.351-.21,2.726,2.726,0,0,1-.535-.6,7.018,7.018,0,0,1-.708-1.437,14.813,14.813,0,0,1-.473-1.529c-.132-.517-.243-1.038-.338-1.563-.191-1.049-.32-2.108-.408-3.17s-.131-2.128-.136-3.193c0-.533.012-1.065.031-1.6s.049-1.064.088-1.6c.078-1.062.2-2.122.37-3.174.088-.526.19-1.049.312-1.568a15.069,15.069,0,0,1,.443-1.536c.089-.251.186-.5.3-.743a5.464,5.464,0,0,1,.381-.7,2.633,2.633,0,0,1,.524-.608,1.351,1.351,0,0,1,.346-.208.975.975,0,0,1,.4-.071,1.049,1.049,0,0,1,.393.092,1.544,1.544,0,0,1,.342.214,2.914,2.914,0,0,1,.535.6,7.18,7.18,0,0,1,.734,1.42,14.64,14.64,0,0,1,.5,1.518c.141.514.261,1.033.365,1.556A33.508,33.508,0,0,1,1146.511,979.813Zm-.157,0c0-1.061-.038-2.123-.126-3.18a30.674,30.674,0,0,0-.414-3.155c-.1-.521-.211-1.04-.347-1.552a14.353,14.353,0,0,0-.483-1.514,7.123,7.123,0,0,0-.711-1.414,2.874,2.874,0,0,0-.518-.591,1.479,1.479,0,0,0-.328-.211.974.974,0,0,0-.375-.092.92.92,0,0,0-.378.071,1.292,1.292,0,0,0-.33.2,2.566,2.566,0,0,0-.5.6,5.339,5.339,0,0,0-.369.7c-.107.242-.2.489-.287.74a14.945,14.945,0,0,0-.424,1.532c-.116.517-.212,1.039-.294,1.564-.162,1.049-.267,2.106-.334,3.165s-.091,2.121-.089,3.183.032,2.123.111,3.181.2,2.114.382,3.159c.091.523.2,1.042.325,1.557a14.8,14.8,0,0,0,.457,1.52,6.941,6.941,0,0,0,.687,1.422,2.633,2.633,0,0,0,.512.587,1.31,1.31,0,0,0,.327.2.893.893,0,0,0,.371.071.937.937,0,0,0,.367-.09,1.4,1.4,0,0,0,.321-.212,2.8,2.8,0,0,0,.5-.6,7.175,7.175,0,0,0,.677-1.427,15.15,15.15,0,0,0,.452-1.522c.126-.515.231-1.035.321-1.557.18-1.045.3-2.1.38-3.159S1146.355,980.875,1146.354,979.813Z" transform="translate(-1139.556 -967.747)"/><path class="k" d="M1142.59,991.351a1.325,1.325,0,0,1-.49-.1,1.691,1.691,0,0,1-.428-.255,2.963,2.963,0,0,1-.6-.672,7.236,7.236,0,0,1-.742-1.5,15.031,15.031,0,0,1-.484-1.562c-.127-.5-.24-1.017-.343-1.584-.182-1.006-.317-2.052-.412-3.2-.085-1.043-.132-2.125-.137-3.217,0-.57.014-1.134.031-1.61.02-.542.05-1.082.089-1.607.085-1.154.207-2.2.373-3.2.095-.57.2-1.09.316-1.589a15.27,15.27,0,0,1,.453-1.567c.1-.285.2-.536.308-.769a5.8,5.8,0,0,1,.4-.745,2.909,2.909,0,0,1,.588-.679,1.66,1.66,0,0,1,.428-.256,1.294,1.294,0,0,1,.523-.092,1.356,1.356,0,0,1,.506.119,1.832,1.832,0,0,1,.412.257,3.193,3.193,0,0,1,.594.66,7.425,7.425,0,0,1,.767,1.482,14.714,14.714,0,0,1,.514,1.551c.138.5.259,1.016.371,1.579a33.552,33.552,0,0,1,.589,6.417h0a36.664,36.664,0,0,1-.527,6.418c-.1.567-.213,1.086-.34,1.586a15.239,15.239,0,0,1-.477,1.562,7.526,7.526,0,0,1-.73,1.5,3.151,3.151,0,0,1-.583.68,1.8,1.8,0,0,1-.415.268,1.323,1.323,0,0,1-.522.122Zm-.161-23.539a.61.61,0,0,0-.234.048.972.972,0,0,0-.251.156,2.218,2.218,0,0,0-.442.528,5.04,5.04,0,0,0-.346.659c-.1.215-.186.448-.277.714a14.7,14.7,0,0,0-.415,1.5c-.109.485-.2.989-.289,1.543-.152.982-.26,2.008-.331,3.137-.062.965-.09,2-.088,3.162,0,1.074.034,2.136.11,3.159.085,1.123.208,2.147.379,3.128.1.549.2,1.052.32,1.535a14.345,14.345,0,0,0,.448,1.488,6.561,6.561,0,0,0,.654,1.357,2.293,2.293,0,0,0,.449.518,1,1,0,0,0,.249.153.663.663,0,0,0,.244.049.637.637,0,0,0,.248-.062,1.114,1.114,0,0,0,.25-.166,2.45,2.45,0,0,0,.444-.532,6.818,6.818,0,0,0,.645-1.364,14.691,14.691,0,0,0,.442-1.49c.118-.481.221-.984.317-1.536.167-.973.291-2,.376-3.129.078-1.021.117-2.083.117-3.158h0c0-1.071-.04-2.132-.125-3.154a30.234,30.234,0,0,0-.409-3.123c-.1-.544-.214-1.045-.342-1.531a14.092,14.092,0,0,0-.473-1.481,6.765,6.765,0,0,0-.678-1.352,2.525,2.525,0,0,0-.459-.526,1.172,1.172,0,0,0-.258-.167.655.655,0,0,0-.254-.064Z" transform="translate(-1138.956 -967.144)"/></g><g transform="translate(2.444)"><path class="k" d="M1140.133,979.686a15.588,15.588,0,0,1-.549,4.066,13.125,13.125,0,0,1-1.695,3.729,10.769,10.769,0,0,1-1.294,1.591A9.1,9.1,0,0,1,1135,990.36a7.676,7.676,0,0,1-1.859.854,6.926,6.926,0,0,1-4.043,0,7.672,7.672,0,0,1-1.861-.852,9.128,9.128,0,0,1-1.6-1.287,10.75,10.75,0,0,1-1.3-1.591,13.147,13.147,0,0,1-1.7-3.73,14.87,14.87,0,0,1-.411-2.016,15.238,15.238,0,0,1,0-4.107,14.783,14.783,0,0,1,.413-2.016,13.127,13.127,0,0,1,1.7-3.728,10.712,10.712,0,0,1,1.3-1.589,9.07,9.07,0,0,1,1.595-1.285,7.7,7.7,0,0,1,1.859-.849,6.877,6.877,0,0,1,4.036,0,7.688,7.688,0,0,1,1.858.85,9.056,9.056,0,0,1,1.593,1.286,10.713,10.713,0,0,1,1.295,1.589,13.114,13.114,0,0,1,1.7,3.726A15.58,15.58,0,0,1,1140.133,979.686Zm-.18,0a15.405,15.405,0,0,0-.527-4.022,13.063,13.063,0,0,0-1.641-3.7,10.627,10.627,0,0,0-1.265-1.587,8.843,8.843,0,0,0-1.565-1.288,7.554,7.554,0,0,0-1.835-.852,6.707,6.707,0,0,0-4,0,7.54,7.54,0,0,0-1.834.853,8.869,8.869,0,0,0-1.563,1.289,10.654,10.654,0,0,0-1.263,1.587,13.041,13.041,0,0,0-1.636,3.7,14.927,14.927,0,0,0-.393,1.992,15.549,15.549,0,0,0,0,4.054,14.972,14.972,0,0,0,.4,1.992,13.042,13.042,0,0,0,1.639,3.7,10.566,10.566,0,0,0,1.263,1.585,8.8,8.8,0,0,0,1.563,1.287,7.574,7.574,0,0,0,1.832.85,6.663,6.663,0,0,0,3.99,0,7.586,7.586,0,0,0,1.834-.849,8.808,8.808,0,0,0,1.564-1.286,10.6,10.6,0,0,0,1.265-1.585,13.056,13.056,0,0,0,1.643-3.7A15.4,15.4,0,0,0,1139.952,979.686Z" transform="translate(-1121.787 -967.555)"/><path class="k" d="M1130.52,991.224a7.3,7.3,0,0,1-2.111-.314,7.949,7.949,0,0,1-1.936-.886,9.372,9.372,0,0,1-1.65-1.331,11.078,11.078,0,0,1-1.334-1.636,13.4,13.4,0,0,1-1.74-3.819,15.119,15.119,0,0,1-.42-2.06,15.483,15.483,0,0,1,0-4.189,15.166,15.166,0,0,1,.421-2.058,13.422,13.422,0,0,1,1.743-3.817,11.037,11.037,0,0,1,1.335-1.635,9.379,9.379,0,0,1,1.65-1.328,7.991,7.991,0,0,1,1.934-.883,7.19,7.19,0,0,1,4.215,0,7.988,7.988,0,0,1,1.932.884,9.39,9.39,0,0,1,1.648,1.329,11.106,11.106,0,0,1,1.332,1.636,13.374,13.374,0,0,1,1.738,3.815,15.891,15.891,0,0,1,.563,4.149v0a15.876,15.876,0,0,1-.56,4.148,13.387,13.387,0,0,1-1.736,3.818,11,11,0,0,1-1.332,1.638,9.379,9.379,0,0,1-1.648,1.331,7.976,7.976,0,0,1-1.934.888A7.312,7.312,0,0,1,1130.52,991.224Zm0-23.586a6.614,6.614,0,0,0-1.907.292,7.236,7.236,0,0,0-1.759.819,8.553,8.553,0,0,0-1.507,1.243,10.334,10.334,0,0,0-1.225,1.541,12.709,12.709,0,0,0-1.6,3.614,14.733,14.733,0,0,0-.385,1.951,15.224,15.224,0,0,0,0,3.973,14.634,14.634,0,0,0,.386,1.95,12.7,12.7,0,0,0,1.6,3.611,10.283,10.283,0,0,0,1.225,1.539,8.554,8.554,0,0,0,1.507,1.242,7.277,7.277,0,0,0,1.757.815,6.353,6.353,0,0,0,3.81,0,7.287,7.287,0,0,0,1.759-.814,8.51,8.51,0,0,0,1.509-1.241,10.306,10.306,0,0,0,1.228-1.538,12.717,12.717,0,0,0,1.6-3.613,15.275,15.275,0,0,0,0-7.88,12.74,12.74,0,0,0-1.6-3.615,10.332,10.332,0,0,0-1.228-1.54,8.561,8.561,0,0,0-1.51-1.243,7.236,7.236,0,0,0-1.759-.817A6.61,6.61,0,0,0,1130.519,967.638Z" transform="translate(-1121.186 -966.952)"/></g><g transform="translate(0.941 7.095)"><path class="k" d="M1117.683,988.794l2.706-.022,2.707-.012,5.412-.01,5.413.011,2.706.014,2.706.024a.008.008,0,0,1,.008.008s0,.008-.008.008l-2.706.024-2.706.014-5.413.011-5.412-.01-2.707-.013-2.706-.022a.022.022,0,0,1-.012-.005C1117.671,988.8,1117.677,988.794,1117.683,988.794Z" transform="translate(-1117.362 -988.438)"/><path class="k" d="M1127.908,988.569l-8.121-.022-2.836-.023-.189-.19v-.139l.007-.3.311-.012,5.413-.034,5.414-.01,8.121.025,3.014.026.008.626-.317.008-5.411.037Z" transform="translate(-1116.762 -987.835)"/></g><g transform="translate(4.08 2.545)"><path class="k" d="M1126.924,975.4c.64-.01,1.281-.015,1.921-.022l1.921-.013c.64-.005,1.281,0,1.922-.006l1.921,0,3.843.011,1.921.014c.64.008,1.281.013,1.921.024a.013.013,0,0,1,.008,0c0,.009,0,.012-.008.012-.641.011-1.281.016-1.921.024l-1.921.014-3.843.011-1.921,0c-.641,0-1.281,0-1.922-.006l-1.921-.013c-.641-.008-1.281-.012-1.921-.022a.012.012,0,0,1-.012-.012A.012.012,0,0,1,1126.924,975.4Z" transform="translate(-1126.603 -975.046)"/><path class="k" d="M1134.009,975.176l-2.421,0c-.475,0-.95,0-1.425-.005l-2.562-.019c-.428,0-.855-.008-1.283-.015l-.3,0L1126,974.5l.316-.012c.414-.006.828-.011,1.242-.015l2.6-.02q.676-.006,1.354-.005l2.491-.005,6.467.033c.408,0,.816.008,1.225.016l.315.005-.014.623-.307.008c-.422.007-.85.012-1.278.016l-2.563.021Z" transform="translate(-1126.002 -974.442)"/></g><g transform="translate(0 11.646)"><path class="k" d="M1114.915,1002.187l2.941-.022,2.941-.013,5.883-.01,5.883.011,2.942.014,2.941.023a.008.008,0,0,1,.008.008s0,.008-.008.008l-2.941.024-2.942.014-5.883.011-5.883-.01-2.941-.013-2.941-.022a.012.012,0,0,1-.012-.012A.012.012,0,0,1,1114.915,1002.187Z" transform="translate(-1114.594 -1001.832)"/><path class="k" d="M1126.08,1001.962l-8.826-.022-3.249-.024-.012-.63.319-.012,5.884-.034,5.884-.01,8.826.025,3.072.025.187.191-.012.437-.307.008-5.882.037Z" transform="translate(-1113.993 -1001.229)"/></g><g transform="translate(0.941 16.196)"><path class="k" d="M1117.683,1015.58l2.706-.022,2.707-.012,5.412-.01,5.413.011,2.706.014,2.706.023a.013.013,0,0,1,.008,0c0,.009,0,.012-.008.012l-2.706.024-2.706.014-5.413.011-5.412-.01-2.707-.012-2.706-.022a.012.012,0,0,1-.012-.012A.012.012,0,0,1,1117.683,1015.58Z" transform="translate(-1117.362 -1015.225)"/><path class="k" d="M1127.908,1015.355l-8.121-.023-2.836-.023-.189-.189v-.139l.007-.3.311-.012,5.414-.035,5.414-.01,8.121.025,3.014.026.008.626-.317.008-5.411.037Z" transform="translate(-1116.762 -1014.622)"/></g><g transform="translate(4.438 20.761)"><path class="k" d="M1143.377,1029.055h-15.371a.042.042,0,0,1,0-.084h15.371a.042.042,0,0,1,0,.084Z" transform="translate(-1127.655 -1028.661)"/><path class="k" d="M1142.776,1028.762h-15.371a.352.352,0,0,1,0-.7h15.371a.352.352,0,0,1,0,.7Z" transform="translate(-1127.054 -1028.058)"/></g></g></g><g class="q" transform="translate(457.395 225.052)"><path class="k" d="M1743.042,989.04a13.851,13.851,0,1,1,13.851-13.851A13.866,13.866,0,0,1,1743.042,989.04Zm0-26.355a12.5,12.5,0,1,0,12.5,12.5A12.518,12.518,0,0,0,1743.042,962.685Z" transform="translate(-1729.191 -961.339)"/><path class="k" d="M1749.594,991.833a10.89,10.89,0,1,1,10.89-10.89A10.9,10.9,0,0,1,1749.594,991.833Zm0-21.107a10.217,10.217,0,1,0,10.217,10.217A10.228,10.228,0,0,0,1749.594,970.726Z" transform="translate(-1735.472 -967.092)"/><g transform="translate(9.474 6.382)"><path class="k" d="M1760.688,995.436v-1.148a9.368,9.368,0,0,1-3.222-.7.664.664,0,0,1-.367-.784l.291-1.07a.67.67,0,0,1,.909-.438,7.768,7.768,0,0,0,2.975.627c1.153,0,2.013-.391,2.013-1.192,0-.723-.665-1.153-2.267-1.583-2.286-.625-3.927-1.622-3.927-3.634,0-1.818,1.328-3.2,3.634-3.576v-1.148a.669.669,0,0,1,.669-.669h.674a.669.669,0,0,1,.669.669v1.031a8.522,8.522,0,0,1,2.554.458.666.666,0,0,1,.416.8l-.269.989a.667.667,0,0,1-.881.451,6.961,6.961,0,0,0-2.5-.455c-1.368,0-1.759.567-1.759,1.075,0,.625.821,1.055,2.6,1.6,2.54.762,3.6,1.817,3.6,3.712,0,1.739-1.29,3.3-3.791,3.693v1.285a.669.669,0,0,1-.669.669h-.675A.669.669,0,0,1,1760.688,995.436Z" transform="translate(-1757.076 -980.122)"/></g></g><path class="r" d="M1799.042,409.058a7.126,7.126,0,1,1-7.126-7.126A7.126,7.126,0,0,1,1799.042,409.058Z" transform="translate(-1308.505 -356.939)"/><path class="s" d="M1859.187,409.058a7.126,7.126,0,1,1-7.126-7.126A7.126,7.126,0,0,1,1859.187,409.058Z" transform="translate(-1348.216 -356.939)"/><path class="t" d="M1919.332,409.058a7.126,7.126,0,1,1-7.126-7.126A7.126,7.126,0,0,1,1919.332,409.058Z" transform="translate(-1387.927 -356.939)"/></g><g transform="translate(0 178.038)"><g transform="translate(0 177.933)"><path class="k" d="M296.379,1243.282c-1.969,2.913-9.793,68.872-11.018,93.233a2.881,2.881,0,0,0,2.884,3.021h0a2.886,2.886,0,0,0,2.852-2.441l14.312-91.715Z" transform="translate(-284.535 -1228.778)"/><path class="k" d="M469.958,1243.282c1.969,2.913,9.793,68.872,11.018,93.233a2.881,2.881,0,0,1-2.884,3.021h0a2.887,2.887,0,0,1-2.852-2.441l-14.312-91.715Z" transform="translate(-395.205 -1228.778)"/><path class="k" d="M283.141,1213.4l-.007.719c-.047,5.175,4.411,9.419,9.993,9.514l66.152,1.125c5.5.093,10.088-3.882,10.355-8.977l.034-.658c.278-5.313-4.233-9.789-9.971-9.892l-66.18-1.186C287.853,1203.946,283.189,1208.151,283.141,1213.4Z" transform="translate(-283.134 -1204.046)"/></g><g transform="translate(8.988)"><g transform="translate(100.305 271.259)"><path class="u" d="M598.4,1485.726c-11.759,0-16.963-1.009-19.289-1.929a4.462,4.462,0,0,0,4.346,3.455h41.6a2.024,2.024,0,0,0,1.95-2.555C622.27,1485.079,612.2,1485.726,598.4,1485.726Z" transform="translate(-578.995 -1473.71)"/><path class="v" d="M626.809,1467.5a1.964,1.964,0,0,0-.34-.708c-3.169-4.046-9.535-10.4-18.194-10.278-12.686.178-17.109,1.555-26.967.077l-2.326,7.708a4.421,4.421,0,0,0-.071,2.3c2.326.92,7.53,1.929,19.289,1.929C611.995,1468.526,622.067,1467.879,626.809,1467.5Z" transform="translate(-578.792 -1456.51)"/></g><path class="w" d="M588.451,1434.251l-2.854,9.709s6.324,2.879,11.887.567l1.092-8.411Z" transform="translate(-482.776 -1171.22)"/><g transform="translate(171.289 257.224)"><path class="x" d="M798.881,1440.559c-9.167,7.366-13.852,9.842-16.239,10.585a4.457,4.457,0,0,0,5.542-.041l32.43-26.057a2.016,2.016,0,0,0-.072-3.2C817.083,1425.108,809.635,1431.919,798.881,1440.559Z" transform="translate(-778.271 -1420.622)"/><path class="y" d="M813.088,1419.763a1.945,1.945,0,0,0-.707-.337c-4.992-1.154-13.916-2.1-20.59,3.422-9.778,8.084-12.368,11.922-20.973,16.95l2.992,7.438a4.379,4.379,0,0,0,1.378,1.828c2.387-.743,7.072-3.219,16.239-10.585C802.181,1429.839,809.629,1423.029,813.088,1419.763Z" transform="translate(-770.818 -1418.543)"/></g><path class="z" d="M405.008,1135.013s70.4,5.749,84.848,12.548-11.786,102.091-11.786,102.091-3.932,1.892-12.681-.828c0,0,8.972-70.321,2.3-85.57l-76.23-12.469Z" transform="translate(-360.401 -982.598)"/><path class="w" d="M751.894,1432.752c.654.6,7,13.385,7,13.385s7.06-1.527,8.5-6l-6.352-11.544Z" transform="translate(-587.601 -1167.657)"/><path class="z" d="M309.652,1133.421a35.657,35.657,0,0,0-2.2,12.857,19.3,19.3,0,0,0,18.42,18.885l83.23,3.8a3.993,3.993,0,0,1,3.685,3c1.955,7.565,11.516,30.8,58.246,77.152a3.767,3.767,0,0,0,4.661.508l6.652-4.2a1.532,1.532,0,0,0,.5-2.069l-48.461-82.753a18.754,18.754,0,0,0-11.4-8.452l-70.938-18.133Z" transform="translate(-307.449 -981.595)"/><path class="aa" d="M519.123,788.748s-23.449,13.908-32.539,21.544l18.789,10.483s10.153-11.728,19.826-16.615Z" transform="translate(-420.365 -764.333)"/><path class="ab" d="M309.32,948.981s22.469,5.476,43.916,0c0,0,30.01-40.342,41.62-51.322,0,0,18.519,29.223,59.74,33.365l2.3-5.137s-32.816-15.128-42.919-38.371-14.16-33.157-23.351-39.222c-5.724-3.777-9.151-6.357-10.923-7.766a2.938,2.938,0,0,0-3.366-.214C366.582,846.258,320.687,877.692,309.32,948.981Z" transform="translate(-308.628 -796.566)"/><path class="w" d="M695.614,1057.321l4.64-1.237,14.087-3.262a6.532,6.532,0,0,1,4.952.835l12.112,7.621-33.45-.057Z" transform="translate(-552.125 -930.684)"/><g transform="translate(88.185)"><path class="ac" d="M597.445,753.915c.066.454-6,30.2-6,30.2l-16.911-3.827,1.564-29.049S596.347,746.306,597.445,753.915Z" transform="translate(-563.985 -739.699)"/><path class="ad" d="M562.356,740.716l-2.021,15.227a2.113,2.113,0,0,0,0,.583c.171,1.194,1.058,5.257,5.16,4.1,3.722-1.054,7.135-1.961,9.492-1.24a2.143,2.143,0,0,1,1.475,2.48,92.694,92.694,0,0,1-3.893,13.861,2.139,2.139,0,0,1-2.6,1.265c-3.207-.935-9.917-3.1-14.907-6.1a2.147,2.147,0,0,1-1.046-1.931c.162-3.844.612-15.529.233-18.8-.355-3.075-4.128-4.916-5.768-5.577a2.109,2.109,0,0,1-1.174-1.178c-.759-1.9-1.806-6.3,3.742-8.109a2.148,2.148,0,0,0,1.36-2.778c-.821-2.287-1.168-5.779,3.124-7.7,4.362-1.955,7.621.37,9.379,2.26a2.146,2.146,0,0,0,2.735.323,1.7,1.7,0,0,1,1.932.066,2.114,2.114,0,0,0,2.993-.907,6.407,6.407,0,0,1,7.444-3.71c7.578,1.3,8.437,9.7,6.438,14.616s-10.136,3.047-14.217.566c-3.1-1.886-7.129.091-8.88,1.147A2.127,2.127,0,0,0,562.356,740.716Z" transform="translate(-546.444 -722.702)"/><path class="ae" d="M553.136,791.766s3.116-8.724-.085-10.861-7.941-1.027-6.9,5.292C547.451,794.059,553.136,791.766,553.136,791.766Z" transform="translate(-546.006 -758.763)"/></g></g><g transform="translate(136.516 65.466)"><g transform="translate(0 65.237)"><path class="af" d="M655.474,1082.731c.054,0,.109,0,.164,0l71.46-.071a3.193,3.193,0,1,0-.007-6.385l-71.461.071a3.193,3.193,0,0,0-.156,6.381Z" transform="translate(-652.436 -1076.278)"/></g><g transform="translate(71.899)"><path class="ag" d="M877.375,901.507c-.026.048-.05.1-.073.147l-30.068,64.827a3.193,3.193,0,1,0,5.793,2.686l30.067-64.827a3.192,3.192,0,0,0-5.72-2.833Z" transform="translate(-846.936 -899.799)"/></g></g><g transform="translate(120.273 133.503)"><path class="l" d="M682.16,1103.437c-.312,1.293-30.13,113.123-37.69,141.474a5.126,5.126,0,0,0,4.906,6.476h0a5.092,5.092,0,0,0,4.929-3.9l33.1-134.2Z" transform="translate(-631.06 -1096.198)"/><path class="l" d="M781.958,1103.437c.312,1.293,30.13,113.123,37.689,141.474a5.125,5.125,0,0,1-4.906,6.476h0a5.092,5.092,0,0,1-4.929-3.9l-33.1-134.2Z" transform="translate(-714.53 -1096.198)"/><path class="l" d="M762.6,1093.545h-18.57v14.914a3.858,3.858,0,0,0,3.835,3.881h2.548v33.5a2.92,2.92,0,0,0,2.9,2.938h0a2.921,2.921,0,0,0,2.9-2.938v-33.5h1.293a5.12,5.12,0,0,0,5.089-5.151Z" transform="translate(-693.926 -1089.963)"/><path class="ah" d="M612.935,1083.854H716.627a3.185,3.185,0,0,1,3.077,2.413l1.448,5.677a3.207,3.207,0,0,1-3.1,4.02l-106.4-.619a3.208,3.208,0,0,1-3.063-4l1.259-5.058A3.186,3.186,0,0,1,612.935,1083.854Z" transform="translate(-608.497 -1083.854)"/></g></g></g></g></g><g transform="translate(88.804 339.698)"><g transform="translate(3 5.014)"><path class="c" d="M230.705,674.753a1.589,1.589,0,0,1-1.212-.561l-5.024-5.94a36.919,36.919,0,0,1-10.978-.244l-5.284,5.7a1.587,1.587,0,0,1-1.8.373l-9.082-4a1.589,1.589,0,0,1-.942-1.583l.647-7.748a36.876,36.876,0,0,1-7.584-7.94l-7.774.3a1.59,1.59,0,0,1-1.539-1.012l-3.591-9.254a1.588,1.588,0,0,1,.455-1.786l5.94-5.024a36.883,36.883,0,0,1,.244-10.978l-5.7-5.285a1.589,1.589,0,0,1-.374-1.8l4.006-9.083a1.59,1.59,0,0,1,1.582-.941l7.749.647a36.886,36.886,0,0,1,7.94-7.584l-.3-7.774a1.588,1.588,0,0,1,1.011-1.539l9.255-3.591a1.589,1.589,0,0,1,1.785.454l5.024,5.94a36.887,36.887,0,0,1,10.978.244l5.285-5.7a1.588,1.588,0,0,1,1.8-.373l9.084,4.006a1.586,1.586,0,0,1,.941,1.584l-.646,7.747a36.88,36.88,0,0,1,7.584,7.941l7.774-.3a1.593,1.593,0,0,1,1.54,1.011l3.591,9.254a1.587,1.587,0,0,1-.455,1.786l-5.94,5.024a36.875,36.875,0,0,1-.244,10.978l5.7,5.285a1.586,1.586,0,0,1,.373,1.8l-4,9.083a1.6,1.6,0,0,1-1.584.941l-7.747-.646a36.892,36.892,0,0,1-7.941,7.584l.3,7.774a1.589,1.589,0,0,1-1.011,1.54l-9.256,3.59A1.581,1.581,0,0,1,230.705,674.753Zm-5.5-8.433,5.564,6.577,8.953-3.474-.327-8.609.413-.283a35.086,35.086,0,0,0,8.234-7.865l.3-.4,8.58.716L260.8,644.2l-6.315-5.852.092-.492a35.1,35.1,0,0,0,.253-11.383l-.07-.5,6.578-5.564-3.474-8.953-8.609.328-.282-.413a35.1,35.1,0,0,0-7.864-8.234l-.4-.3.716-8.58-8.787-3.875-5.852,6.315-.492-.092a35.1,35.1,0,0,0-11.384-.254l-.5.07-5.564-6.577-8.953,3.474.327,8.608-.413.283a35.1,35.1,0,0,0-8.234,7.864l-.3.4-8.579-.717-3.875,8.788,6.315,5.853-.092.492a35.1,35.1,0,0,0-.253,11.384l.07.5-6.577,5.564,3.474,8.954,8.608-.328.282.413a35.081,35.081,0,0,0,7.865,8.234l.4.3-.716,8.58,8.788,3.874,5.852-6.314.492.092a35.1,35.1,0,0,0,11.383.253Zm-5.622-10a24.86,24.86,0,1,1,10.066-47.606,25.015,25.015,0,0,1,4.59,2.634.906.906,0,1,1-1.065,1.467,23.268,23.268,0,0,0-4.257-2.443A23.038,23.038,0,1,0,242.5,628.615a.907.907,0,0,1,1.8-.225,24.866,24.866,0,0,1-24.709,27.932Z" transform="translate(-176.429 -587.987)"/><g transform="translate(33.661 33.66)"><path class="c" d="M311.528,732.8a9.723,9.723,0,1,1,1.616-19.307,9.722,9.722,0,0,1-1.616,19.307Zm-.021-17.632A7.909,7.909,0,0,0,310.2,730.87a8.032,8.032,0,0,0,1.333.113,7.909,7.909,0,0,0,1.312-15.706A8.037,8.037,0,0,0,311.508,715.163Z" transform="translate(-301.796 -713.35)"/></g></g><g transform="translate(94.487 -49)"><path class="c" d="M494.64,573.677a.812.812,0,0,1-.238-.036l-2.8-.869a.805.805,0,0,1-.566-.744l-.066-2.118a11.248,11.248,0,0,1-2.294-1.9l-2.093.322a.8.8,0,0,1-.834-.419l-1.368-2.6a.807.807,0,0,1,.125-.927l1.45-1.543a11.241,11.241,0,0,1-.273-2.971l-1.708-1.253a.807.807,0,0,1-.293-.888l.869-2.8a.805.805,0,0,1,.747-.567l2.115-.066A11.23,11.23,0,0,1,489.312,552l-.322-2.092a.807.807,0,0,1,.42-.835l2.6-1.367a.8.8,0,0,1,.927.126l1.543,1.449a11.2,11.2,0,0,1,2.969-.273L498.7,547.3a.807.807,0,0,1,.888-.293l2.8.869a.806.806,0,0,1,.567.744l.067,2.117a11.239,11.239,0,0,1,2.294,1.905l2.093-.322a.8.8,0,0,1,.835.422l1.367,2.6a.805.805,0,0,1-.126.926l-1.449,1.543a11.229,11.229,0,0,1,.273,2.97l1.708,1.253a.8.8,0,0,1,.293.889l-.869,2.8a.806.806,0,0,1-.742.566l-2.12.067a11.25,11.25,0,0,1-1.905,2.294l.322,2.092a.806.806,0,0,1-.42.835l-2.6,1.368a.809.809,0,0,1-.928-.128l-1.541-1.447a11.1,11.1,0,0,1-2.97.273l-1.253,1.709A.8.8,0,0,1,494.64,573.677Zm-2.409-1.975,2.254.7,1.474-2.01.333.024a10.132,10.132,0,0,0,3.243-.3l.323-.084,1.816,1.7,2.087-1.1-.379-2.462.252-.219a10.036,10.036,0,0,0,2.081-2.505l.169-.288,2.491-.078.7-2.253-2.01-1.475.023-.332a10.02,10.02,0,0,0-.3-3.243l-.084-.323,1.705-1.816-1.1-2.087-2.462.379-.219-.252a10.029,10.029,0,0,0-2.506-2.081l-.288-.169-.078-2.491-2.254-.7-1.474,2.01-.333-.024a10.06,10.06,0,0,0-3.243.3l-.323.084-1.816-1.705-2.088,1.1.379,2.462-.252.219a10.023,10.023,0,0,0-2.081,2.505l-.169.288-2.491.078-.7,2.254,2.01,1.473-.023.333a10.038,10.038,0,0,0,.3,3.244l.084.323L485.579,565l1.1,2.088,2.462-.379.219.252a10.038,10.038,0,0,0,2.506,2.081l.288.169Zm4.712-3.7a7.683,7.683,0,1,1,7.4-9.751.6.6,0,0,1-1.164.326,6.477,6.477,0,1,0-11.972,4.754,6.479,6.479,0,0,0,11.263.352.6.6,0,1,1,1.033.628A7.709,7.709,0,0,1,496.943,568Z" transform="translate(-483.64 -546.968)"/><g transform="translate(10.144 10.144)"><path class="c" d="M524.632,591.168a3.209,3.209,0,1,1,2.145-.822A3.214,3.214,0,0,1,524.632,591.168Zm0-5.211a2,2,0,0,0-1.488,3.338,2.057,2.057,0,0,0,2.826.151,2,2,0,0,0,.151-2.826A2.006,2.006,0,0,0,524.63,585.957Z" transform="translate(-521.421 -584.748)"/></g></g><g transform="translate(146.487 -22)"><path class="c" d="M494.64,573.677a.812.812,0,0,1-.238-.036l-2.8-.869a.805.805,0,0,1-.566-.744l-.066-2.118a11.248,11.248,0,0,1-2.294-1.9l-2.093.322a.8.8,0,0,1-.834-.419l-1.368-2.6a.807.807,0,0,1,.125-.927l1.45-1.543a11.241,11.241,0,0,1-.273-2.971l-1.708-1.253a.807.807,0,0,1-.293-.888l.869-2.8a.805.805,0,0,1,.747-.567l2.115-.066A11.23,11.23,0,0,1,489.312,552l-.322-2.092a.807.807,0,0,1,.42-.835l2.6-1.367a.8.8,0,0,1,.927.126l1.543,1.449a11.2,11.2,0,0,1,2.969-.273L498.7,547.3a.807.807,0,0,1,.888-.293l2.8.869a.806.806,0,0,1,.567.744l.067,2.117a11.239,11.239,0,0,1,2.294,1.905l2.093-.322a.8.8,0,0,1,.835.422l1.367,2.6a.805.805,0,0,1-.126.926l-1.449,1.543a11.229,11.229,0,0,1,.273,2.97l1.708,1.253a.8.8,0,0,1,.293.889l-.869,2.8a.806.806,0,0,1-.742.566l-2.12.067a11.25,11.25,0,0,1-1.905,2.294l.322,2.092a.806.806,0,0,1-.42.835l-2.6,1.368a.809.809,0,0,1-.928-.128l-1.541-1.447a11.1,11.1,0,0,1-2.97.273l-1.253,1.709A.8.8,0,0,1,494.64,573.677Zm-2.409-1.975,2.254.7,1.474-2.01.333.024a10.132,10.132,0,0,0,3.243-.3l.323-.084,1.816,1.7,2.087-1.1-.379-2.462.252-.219a10.036,10.036,0,0,0,2.081-2.505l.169-.288,2.491-.078.7-2.253-2.01-1.475.023-.332a10.02,10.02,0,0,0-.3-3.243l-.084-.323,1.705-1.816-1.1-2.087-2.462.379-.219-.252a10.029,10.029,0,0,0-2.506-2.081l-.288-.169-.078-2.491-2.254-.7-1.474,2.01-.333-.024a10.06,10.06,0,0,0-3.243.3l-.323.084-1.816-1.705-2.088,1.1.379,2.462-.252.219a10.023,10.023,0,0,0-2.081,2.505l-.169.288-2.491.078-.7,2.254,2.01,1.473-.023.333a10.038,10.038,0,0,0,.3,3.244l.084.323L485.579,565l1.1,2.088,2.462-.379.219.252a10.038,10.038,0,0,0,2.506,2.081l.288.169Zm4.712-3.7a7.683,7.683,0,1,1,7.4-9.751.6.6,0,0,1-1.164.326,6.477,6.477,0,1,0-11.972,4.754,6.479,6.479,0,0,0,11.263.352.6.6,0,1,1,1.033.628A7.709,7.709,0,0,1,496.943,568Z" transform="translate(-483.64 -546.968)"/><g transform="translate(10.144 10.144)"><path class="c" d="M524.632,591.168a3.209,3.209,0,1,1,2.145-.822A3.214,3.214,0,0,1,524.632,591.168Zm0-5.211a2,2,0,0,0-1.488,3.338,2.057,2.057,0,0,0,2.826.151,2,2,0,0,0,.151-2.826A2.006,2.006,0,0,0,524.63,585.957Z" transform="translate(-521.421 -584.748)"/></g></g><g transform="translate(86.487 81)"><path class="c" d="M494.64,573.677a.812.812,0,0,1-.238-.036l-2.8-.869a.805.805,0,0,1-.566-.744l-.066-2.118a11.248,11.248,0,0,1-2.294-1.9l-2.093.322a.8.8,0,0,1-.834-.419l-1.368-2.6a.807.807,0,0,1,.125-.927l1.45-1.543a11.241,11.241,0,0,1-.273-2.971l-1.708-1.253a.807.807,0,0,1-.293-.888l.869-2.8a.805.805,0,0,1,.747-.567l2.115-.066A11.23,11.23,0,0,1,489.312,552l-.322-2.092a.807.807,0,0,1,.42-.835l2.6-1.367a.8.8,0,0,1,.927.126l1.543,1.449a11.2,11.2,0,0,1,2.969-.273L498.7,547.3a.807.807,0,0,1,.888-.293l2.8.869a.806.806,0,0,1,.567.744l.067,2.117a11.239,11.239,0,0,1,2.294,1.905l2.093-.322a.8.8,0,0,1,.835.422l1.367,2.6a.805.805,0,0,1-.126.926l-1.449,1.543a11.229,11.229,0,0,1,.273,2.97l1.708,1.253a.8.8,0,0,1,.293.889l-.869,2.8a.806.806,0,0,1-.742.566l-2.12.067a11.25,11.25,0,0,1-1.905,2.294l.322,2.092a.806.806,0,0,1-.42.835l-2.6,1.368a.809.809,0,0,1-.928-.128l-1.541-1.447a11.1,11.1,0,0,1-2.97.273l-1.253,1.709A.8.8,0,0,1,494.64,573.677Zm-2.409-1.975,2.254.7,1.474-2.01.333.024a10.132,10.132,0,0,0,3.243-.3l.323-.084,1.816,1.7,2.087-1.1-.379-2.462.252-.219a10.036,10.036,0,0,0,2.081-2.505l.169-.288,2.491-.078.7-2.253-2.01-1.475.023-.332a10.02,10.02,0,0,0-.3-3.243l-.084-.323,1.705-1.816-1.1-2.087-2.462.379-.219-.252a10.029,10.029,0,0,0-2.506-2.081l-.288-.169-.078-2.491-2.254-.7-1.474,2.01-.333-.024a10.06,10.06,0,0,0-3.243.3l-.323.084-1.816-1.705-2.088,1.1.379,2.462-.252.219a10.023,10.023,0,0,0-2.081,2.505l-.169.288-2.491.078-.7,2.254,2.01,1.473-.023.333a10.038,10.038,0,0,0,.3,3.244l.084.323L485.579,565l1.1,2.088,2.462-.379.219.252a10.038,10.038,0,0,0,2.506,2.081l.288.169Zm4.712-3.7a7.683,7.683,0,1,1,7.4-9.751.6.6,0,0,1-1.164.326,6.477,6.477,0,1,0-11.972,4.754,6.479,6.479,0,0,0,11.263.352.6.6,0,1,1,1.033.628A7.709,7.709,0,0,1,496.943,568Z" transform="translate(-483.64 -546.968)"/><g transform="translate(10.144 10.144)"><path class="c" d="M524.632,591.168a3.209,3.209,0,1,1,2.145-.822A3.214,3.214,0,0,1,524.632,591.168Zm0-5.211a2,2,0,0,0-1.488,3.338,2.057,2.057,0,0,0,2.826.151,2,2,0,0,0,.151-2.826A2.006,2.006,0,0,0,524.63,585.957Z" transform="translate(-521.421 -584.748)"/></g></g></g><g transform="translate(879.11 302.375) rotate(-3)"><g transform="translate(-69.942 38.812)"><path class="c" d="M494.64,573.677a.812.812,0,0,1-.238-.036l-2.8-.869a.805.805,0,0,1-.566-.744l-.066-2.118a11.248,11.248,0,0,1-2.294-1.9l-2.093.322a.8.8,0,0,1-.834-.419l-1.368-2.6a.807.807,0,0,1,.125-.927l1.45-1.543a11.241,11.241,0,0,1-.273-2.971l-1.708-1.253a.807.807,0,0,1-.293-.888l.869-2.8a.805.805,0,0,1,.747-.567l2.115-.066A11.23,11.23,0,0,1,489.312,552l-.322-2.092a.807.807,0,0,1,.42-.835l2.6-1.367a.8.8,0,0,1,.927.126l1.543,1.449a11.2,11.2,0,0,1,2.969-.273L498.7,547.3a.807.807,0,0,1,.888-.293l2.8.869a.806.806,0,0,1,.567.744l.067,2.117a11.239,11.239,0,0,1,2.294,1.905l2.093-.322a.8.8,0,0,1,.835.422l1.367,2.6a.805.805,0,0,1-.126.926l-1.449,1.543a11.229,11.229,0,0,1,.273,2.97l1.708,1.253a.8.8,0,0,1,.293.889l-.869,2.8a.806.806,0,0,1-.742.566l-2.12.067a11.25,11.25,0,0,1-1.905,2.294l.322,2.092a.806.806,0,0,1-.42.835l-2.6,1.368a.809.809,0,0,1-.928-.128l-1.541-1.447a11.1,11.1,0,0,1-2.97.273l-1.253,1.709A.8.8,0,0,1,494.64,573.677Zm-2.409-1.975,2.254.7,1.474-2.01.333.024a10.132,10.132,0,0,0,3.243-.3l.323-.084,1.816,1.7,2.087-1.1-.379-2.462.252-.219a10.036,10.036,0,0,0,2.081-2.505l.169-.288,2.491-.078.7-2.253-2.01-1.475.023-.332a10.02,10.02,0,0,0-.3-3.243l-.084-.323,1.705-1.816-1.1-2.087-2.462.379-.219-.252a10.029,10.029,0,0,0-2.506-2.081l-.288-.169-.078-2.491-2.254-.7-1.474,2.01-.333-.024a10.06,10.06,0,0,0-3.243.3l-.323.084-1.816-1.705-2.088,1.1.379,2.462-.252.219a10.023,10.023,0,0,0-2.081,2.505l-.169.288-2.491.078-.7,2.254,2.01,1.473-.023.333a10.038,10.038,0,0,0,.3,3.244l.084.323L485.579,565l1.1,2.088,2.462-.379.219.252a10.038,10.038,0,0,0,2.506,2.081l.288.169Zm4.712-3.7a7.683,7.683,0,1,1,7.4-9.751.6.6,0,0,1-1.164.326,6.477,6.477,0,1,0-11.972,4.754,6.479,6.479,0,0,0,11.263.352.6.6,0,1,1,1.033.628A7.709,7.709,0,0,1,496.943,568Z" transform="translate(-483.64 -546.968)"/><g transform="translate(10.144 10.144)"><path class="c" d="M524.632,591.168a3.209,3.209,0,1,1,2.145-.822A3.214,3.214,0,0,1,524.632,591.168Zm0-5.211a2,2,0,0,0-1.488,3.338,2.057,2.057,0,0,0,2.826.151,2,2,0,0,0,.151-2.826A2.006,2.006,0,0,0,524.63,585.957Z" transform="translate(-521.421 -584.748)"/></g></g><g transform="translate(-42.869 65.524)"><path class="c" d="M494.64,573.677a.812.812,0,0,1-.238-.036l-2.8-.869a.805.805,0,0,1-.566-.744l-.066-2.118a11.248,11.248,0,0,1-2.294-1.9l-2.093.322a.8.8,0,0,1-.834-.419l-1.368-2.6a.807.807,0,0,1,.125-.927l1.45-1.543a11.241,11.241,0,0,1-.273-2.971l-1.708-1.253a.807.807,0,0,1-.293-.888l.869-2.8a.805.805,0,0,1,.747-.567l2.115-.066A11.23,11.23,0,0,1,489.312,552l-.322-2.092a.807.807,0,0,1,.42-.835l2.6-1.367a.8.8,0,0,1,.927.126l1.543,1.449a11.2,11.2,0,0,1,2.969-.273L498.7,547.3a.807.807,0,0,1,.888-.293l2.8.869a.806.806,0,0,1,.567.744l.067,2.117a11.239,11.239,0,0,1,2.294,1.905l2.093-.322a.8.8,0,0,1,.835.422l1.367,2.6a.805.805,0,0,1-.126.926l-1.449,1.543a11.229,11.229,0,0,1,.273,2.97l1.708,1.253a.8.8,0,0,1,.293.889l-.869,2.8a.806.806,0,0,1-.742.566l-2.12.067a11.25,11.25,0,0,1-1.905,2.294l.322,2.092a.806.806,0,0,1-.42.835l-2.6,1.368a.809.809,0,0,1-.928-.128l-1.541-1.447a11.1,11.1,0,0,1-2.97.273l-1.253,1.709A.8.8,0,0,1,494.64,573.677Zm-2.409-1.975,2.254.7,1.474-2.01.333.024a10.132,10.132,0,0,0,3.243-.3l.323-.084,1.816,1.7,2.087-1.1-.379-2.462.252-.219a10.036,10.036,0,0,0,2.081-2.505l.169-.288,2.491-.078.7-2.253-2.01-1.475.023-.332a10.02,10.02,0,0,0-.3-3.243l-.084-.323,1.705-1.816-1.1-2.087-2.462.379-.219-.252a10.029,10.029,0,0,0-2.506-2.081l-.288-.169-.078-2.491-2.254-.7-1.474,2.01-.333-.024a10.06,10.06,0,0,0-3.243.3l-.323.084-1.816-1.705-2.088,1.1.379,2.462-.252.219a10.023,10.023,0,0,0-2.081,2.505l-.169.288-2.491.078-.7,2.254,2.01,1.473-.023.333a10.038,10.038,0,0,0,.3,3.244l.084.323L485.579,565l1.1,2.088,2.462-.379.219.252a10.038,10.038,0,0,0,2.506,2.081l.288.169Zm4.712-3.7a7.683,7.683,0,1,1,7.4-9.751.6.6,0,0,1-1.164.326,6.477,6.477,0,1,0-11.972,4.754,6.479,6.479,0,0,0,11.263.352.6.6,0,1,1,1.033.628A7.709,7.709,0,0,1,496.943,568Z" transform="translate(-483.64 -546.968)"/><g transform="translate(10.144 10.144)"><path class="c" d="M524.632,591.168a3.209,3.209,0,1,1,2.145-.822A3.214,3.214,0,0,1,524.632,591.168Zm0-5.211a2,2,0,0,0-1.488,3.338,2.057,2.057,0,0,0,2.826.151,2,2,0,0,0,.151-2.826A2.006,2.006,0,0,0,524.63,585.957Z" transform="translate(-521.421 -584.748)"/></g></g><g transform="translate(-30.251 23.444)"><path class="c" d="M494.64,573.677a.812.812,0,0,1-.238-.036l-2.8-.869a.805.805,0,0,1-.566-.744l-.066-2.118a11.248,11.248,0,0,1-2.294-1.9l-2.093.322a.8.8,0,0,1-.834-.419l-1.368-2.6a.807.807,0,0,1,.125-.927l1.45-1.543a11.241,11.241,0,0,1-.273-2.971l-1.708-1.253a.807.807,0,0,1-.293-.888l.869-2.8a.805.805,0,0,1,.747-.567l2.115-.066A11.23,11.23,0,0,1,489.312,552l-.322-2.092a.807.807,0,0,1,.42-.835l2.6-1.367a.8.8,0,0,1,.927.126l1.543,1.449a11.2,11.2,0,0,1,2.969-.273L498.7,547.3a.807.807,0,0,1,.888-.293l2.8.869a.806.806,0,0,1,.567.744l.067,2.117a11.239,11.239,0,0,1,2.294,1.905l2.093-.322a.8.8,0,0,1,.835.422l1.367,2.6a.805.805,0,0,1-.126.926l-1.449,1.543a11.229,11.229,0,0,1,.273,2.97l1.708,1.253a.8.8,0,0,1,.293.889l-.869,2.8a.806.806,0,0,1-.742.566l-2.12.067a11.25,11.25,0,0,1-1.905,2.294l.322,2.092a.806.806,0,0,1-.42.835l-2.6,1.368a.809.809,0,0,1-.928-.128l-1.541-1.447a11.1,11.1,0,0,1-2.97.273l-1.253,1.709A.8.8,0,0,1,494.64,573.677Zm-2.409-1.975,2.254.7,1.474-2.01.333.024a10.132,10.132,0,0,0,3.243-.3l.323-.084,1.816,1.7,2.087-1.1-.379-2.462.252-.219a10.036,10.036,0,0,0,2.081-2.505l.169-.288,2.491-.078.7-2.253-2.01-1.475.023-.332a10.02,10.02,0,0,0-.3-3.243l-.084-.323,1.705-1.816-1.1-2.087-2.462.379-.219-.252a10.029,10.029,0,0,0-2.506-2.081l-.288-.169-.078-2.491-2.254-.7-1.474,2.01-.333-.024a10.06,10.06,0,0,0-3.243.3l-.323.084-1.816-1.705-2.088,1.1.379,2.462-.252.219a10.023,10.023,0,0,0-2.081,2.505l-.169.288-2.491.078-.7,2.254,2.01,1.473-.023.333a10.038,10.038,0,0,0,.3,3.244l.084.323L485.579,565l1.1,2.088,2.462-.379.219.252a10.038,10.038,0,0,0,2.506,2.081l.288.169Zm4.712-3.7a7.683,7.683,0,1,1,7.4-9.751.6.6,0,0,1-1.164.326,6.477,6.477,0,1,0-11.972,4.754,6.479,6.479,0,0,0,11.263.352.6.6,0,1,1,1.033.628A7.709,7.709,0,0,1,496.943,568Z" transform="translate(-483.64 -546.968)"/><g transform="translate(10.144 10.144)"><path class="c" d="M524.632,591.168a3.209,3.209,0,1,1,2.145-.822A3.214,3.214,0,0,1,524.632,591.168Zm0-5.211a2,2,0,0,0-1.488,3.338,2.057,2.057,0,0,0,2.826.151,2,2,0,0,0,.151-2.826A2.006,2.006,0,0,0,524.63,585.957Z" transform="translate(-521.421 -584.748)"/></g></g></g><g transform="translate(103.49 465.11)"><g transform="translate(22.429 11.013)"><path class="c" d="M208.92,674.753a1.589,1.589,0,0,0,1.212-.561l5.025-5.94a36.919,36.919,0,0,0,10.978-.244l5.284,5.7a1.587,1.587,0,0,0,1.8.373l9.082-4a1.589,1.589,0,0,0,.942-1.583l-.647-7.748a36.875,36.875,0,0,0,7.584-7.94l7.774.3a1.59,1.59,0,0,0,1.539-1.012l3.591-9.254a1.588,1.588,0,0,0-.455-1.786l-5.94-5.024a36.883,36.883,0,0,0-.244-10.978l5.7-5.285a1.589,1.589,0,0,0,.374-1.8l-4.006-9.083a1.59,1.59,0,0,0-1.582-.941l-7.749.647a36.886,36.886,0,0,0-7.94-7.584l.3-7.774a1.588,1.588,0,0,0-1.011-1.539l-9.255-3.591a1.589,1.589,0,0,0-1.785.454l-5.024,5.94a36.887,36.887,0,0,0-10.978.244l-5.285-5.7a1.588,1.588,0,0,0-1.8-.373l-9.084,4.006a1.586,1.586,0,0,0-.941,1.584l.646,7.747a36.879,36.879,0,0,0-7.584,7.941l-7.774-.3a1.593,1.593,0,0,0-1.54,1.011l-3.591,9.254a1.587,1.587,0,0,0,.455,1.786l5.94,5.024a36.874,36.874,0,0,0,.244,10.978l-5.7,5.285a1.586,1.586,0,0,0-.373,1.8l4,9.083a1.6,1.6,0,0,0,1.584.941l7.747-.646a36.893,36.893,0,0,0,7.941,7.584l-.3,7.774a1.589,1.589,0,0,0,1.011,1.54l9.255,3.59A1.581,1.581,0,0,0,208.92,674.753Zm5.5-8.433-5.564,6.577-8.953-3.474.327-8.609-.413-.283a35.086,35.086,0,0,1-8.234-7.865l-.3-.4-8.58.716-3.874-8.788,6.315-5.852-.092-.492a35.1,35.1,0,0,1-.253-11.383l.07-.5-6.577-5.564,3.474-8.953,8.609.328.282-.413a35.1,35.1,0,0,1,7.864-8.234l.4-.3-.716-8.58,8.787-3.875,5.852,6.315.492-.092a35.1,35.1,0,0,1,11.384-.254l.5.07,5.564-6.577,8.953,3.474-.327,8.608.413.283a35.1,35.1,0,0,1,8.234,7.864l.3.4,8.579-.717,3.875,8.788-6.315,5.853.092.492a35.1,35.1,0,0,1,.253,11.384l-.07.5,6.578,5.564-3.474,8.954-8.608-.328-.282.413a35.081,35.081,0,0,1-7.865,8.234l-.4.3.716,8.58-8.788,3.874-5.852-6.314-.492.092a35.106,35.106,0,0,1-11.383.253Zm5.622-10a24.86,24.86,0,1,0-10.066-47.606,25.015,25.015,0,0,0-4.59,2.634.906.906,0,1,0,1.065,1.467,23.268,23.268,0,0,1,4.257-2.443,23.038,23.038,0,1,1-13.575,18.241.907.907,0,0,0-1.8-.225,24.866,24.866,0,0,0,24.709,27.932Z" transform="translate(-176.429 -587.987)"/><g transform="translate(33.66 33.66)"><path class="c" d="M311.509,732.8a9.723,9.723,0,1,0-1.616-19.307,9.722,9.722,0,0,0,1.616,19.307Zm.021-17.632a7.909,7.909,0,0,1,1.312,15.706,8.033,8.033,0,0,1-1.333.113,7.909,7.909,0,0,1-1.312-15.706A8.036,8.036,0,0,1,311.53,715.163Z" transform="translate(-301.796 -713.35)"/></g></g><g transform="translate(0 0)"><path class="c" d="M499.35,573.677a.812.812,0,0,0,.238-.036l2.8-.869a.805.805,0,0,0,.566-.744l.066-2.118a11.247,11.247,0,0,0,2.294-1.9l2.093.322a.8.8,0,0,0,.834-.419l1.368-2.6a.807.807,0,0,0-.125-.927l-1.45-1.543a11.242,11.242,0,0,0,.273-2.971l1.708-1.253a.807.807,0,0,0,.293-.888l-.869-2.8a.8.8,0,0,0-.747-.567l-2.115-.066A11.228,11.228,0,0,0,504.677,552l.322-2.092a.807.807,0,0,0-.42-.835l-2.6-1.367a.8.8,0,0,0-.927.126l-1.543,1.449a11.2,11.2,0,0,0-2.969-.273L495.29,547.3A.807.807,0,0,0,494.4,547l-2.8.869a.806.806,0,0,0-.567.744l-.067,2.117a11.243,11.243,0,0,0-2.294,1.905l-2.093-.322a.8.8,0,0,0-.835.422l-1.367,2.6a.805.805,0,0,0,.126.926l1.449,1.543a11.227,11.227,0,0,0-.273,2.97l-1.708,1.253a.8.8,0,0,0-.293.889l.869,2.8a.806.806,0,0,0,.742.566l2.12.067a11.256,11.256,0,0,0,1.905,2.294l-.322,2.092a.806.806,0,0,0,.42.835l2.6,1.368a.809.809,0,0,0,.928-.128l1.541-1.447a11.1,11.1,0,0,0,2.97.273l1.253,1.709A.8.8,0,0,0,499.35,573.677Zm2.409-1.975-2.254.7-1.474-2.01-.333.024a10.132,10.132,0,0,1-3.243-.3l-.323-.084-1.816,1.7-2.087-1.1.379-2.462-.252-.219a10.037,10.037,0,0,1-2.081-2.505l-.169-.288-2.491-.078-.7-2.253,2.01-1.475-.023-.332a10.021,10.021,0,0,1,.3-3.243l.084-.323-1.705-1.816,1.1-2.087,2.462.379.219-.252a10.029,10.029,0,0,1,2.506-2.081l.288-.169.078-2.491,2.254-.7,1.474,2.01.333-.024a10.059,10.059,0,0,1,3.243.3l.323.084,1.816-1.705,2.088,1.1-.379,2.462.252.219a10.022,10.022,0,0,1,2.081,2.505l.169.288,2.491.078.7,2.254-2.01,1.473.023.333a10.036,10.036,0,0,1-.3,3.244l-.084.323L508.41,565l-1.1,2.088-2.462-.379-.219.252a10.037,10.037,0,0,1-2.506,2.081l-.288.169Zm-4.712-3.7a7.683,7.683,0,1,0-7.4-9.751.6.6,0,0,0,1.164.326,6.477,6.477,0,1,1,11.972,4.754,6.479,6.479,0,0,1-11.263.352.6.6,0,1,0-1.033.628A7.709,7.709,0,0,0,497.047,568Z" transform="translate(-483.64 -546.968)"/><g transform="translate(10.144 10.144)"><path class="c" d="M524.63,591.168a3.209,3.209,0,1,0-2.145-.822A3.214,3.214,0,0,0,524.63,591.168Zm0-5.211a2,2,0,0,1,1.488,3.338,2.058,2.058,0,0,1-2.826.151,2,2,0,0,1-.151-2.826A2.006,2.006,0,0,1,524.632,585.957Z" transform="translate(-521.421 -584.748)"/></g></g></g></g><g transform="translate(174.01 371.586)"><path class="c" d="M58.414,48.755a.435.435,0,0,1-.386-.635c.2-.381.367-.744.522-1.11a.435.435,0,0,1,.8.334c-.161.389-.341.773-.55,1.176a.435.435,0,0,1-.389.235Z" transform="translate(-27.131 -25.301)"/><path class="c" d="M21.73,32.425a.439.439,0,0,1-.2-.047C14.306,28.731,9.99,22.611,9.99,16.009V7.216a.435.435,0,0,1,.479-.432A12.043,12.043,0,0,0,21.4,2.155.435.435,0,0,1,21.725,2a.429.429,0,0,1,.332.149c2.594,2.966,6.29,4.525,10.988,4.632a.435.435,0,0,1,.425.435v7.159a.435.435,0,1,1-.869,0V7.637C28.044,7.448,24.394,5.92,21.738,3.09a12.775,12.775,0,0,1-10.878,4.6v8.319c0,6.208,4.059,11.987,10.87,15.494a22.384,22.384,0,0,0,7.552-6.143.435.435,0,1,1,.691.528,23.34,23.34,0,0,1-8.047,6.491.439.439,0,0,1-.2.047Z"/><path class="c" d="M61.753,39.176a.412.412,0,0,1-.087-.009.435.435,0,0,1-.341-.511c.087-.422.153-.853.2-1.282a.435.435,0,1,1,.863.1c-.053.452-.125.907-.214,1.351A.435.435,0,0,1,61.753,39.176Z" transform="translate(-29.018 -19.782)"/><path class="c" d="M24.939,34.1a.432.432,0,0,1-.213-.056c-5.673-3.189-9.059-8.222-9.059-13.464v-6.35a.435.435,0,0,1,.415-.435A13.275,13.275,0,0,0,24.7,10.115a.435.435,0,0,1,.576-.013,15.743,15.743,0,0,0,8.554,3.5.435.435,0,0,1,.386.432v6.547c0,5.243-3.387,10.276-9.06,13.465a.432.432,0,0,1-.213.056Zm-8.4-19.46v5.94c0,4.859,3.136,9.548,8.4,12.584,5.267-3.037,8.4-7.727,8.4-12.586V14.419a16.567,16.567,0,0,1-8.337-3.41A14.069,14.069,0,0,1,16.536,14.642Z" transform="translate(-3.21 -4.522)"/></g></g></svg>